<svg width="16" height="12" viewBox="0 0 16 12" fill="none" xmlns="http://www.w3.org/2000/svg">
<path d="M13.0808 8.5217C12.6899 8.5217 12.3185 8.67482 12.0383 8.95175C11.7581 9.23194 11.6017 9.59684 11.6017 9.98779C11.6017 10.3788 11.7548 10.7437 12.0383 11.0238C12.3217 11.3008 12.6899 11.4539 13.0808 11.4539C13.8823 11.4539 14.5339 10.7958 14.5339 9.98779C14.5339 9.17981 13.8823 8.5217 13.0808 8.5217ZM13.0808 10.8023C12.6312 10.8023 12.2533 10.4309 12.2533 9.98779C12.2533 9.54471 12.6312 9.1733 13.0808 9.1733C13.5239 9.1733 13.8823 9.53819 13.8823 9.98779C13.8823 10.4374 13.5239 10.8023 13.0808 10.8023ZM13.4588 3.63796C13.4001 3.58257 13.3219 3.55325 13.2405 3.55325H11.5691C11.3899 3.55325 11.2433 3.69986 11.2433 3.87905V6.55061C11.2433 6.7298 11.3899 6.87641 11.5691 6.87641H14.2211C14.4003 6.87641 14.5469 6.7298 14.5469 6.55061V4.76197C14.5469 4.67074 14.5078 4.58278 14.4394 4.52088L13.4588 3.63796ZM13.8953 6.22481H11.8949V4.20159H13.1134L13.8953 4.90532V6.22481ZM5.12482 8.5217C4.73386 8.5217 4.36245 8.67482 4.08226 8.95175C3.80208 9.23194 3.64569 9.59684 3.64569 9.98779C3.64569 10.3788 3.79882 10.7437 4.08226 11.0238C4.36571 11.3008 4.73386 11.4539 5.12482 11.4539C5.92629 11.4539 6.57789 10.7958 6.57789 9.98779C6.57789 9.17981 5.92629 8.5217 5.12482 8.5217ZM5.12482 10.8023C4.67522 10.8023 4.29729 10.4309 4.29729 9.98779C4.29729 9.54471 4.67522 9.1733 5.12482 9.1733C5.56791 9.1733 5.92629 9.53819 5.92629 9.98779C5.92629 10.4374 5.56791 10.8023 5.12482 10.8023ZM2.95174 8.92243H2.29688V8.0558C2.29688 7.87661 2.15027 7.73 1.97109 7.73C1.7919 7.73 1.64529 7.87661 1.64529 8.0558V9.24823C1.64529 9.42742 1.7919 9.57403 1.97109 9.57403H2.95174C3.13093 9.57403 3.27754 9.42742 3.27754 9.24823C3.27754 9.06904 3.13093 8.92243 2.95174 8.92243ZM4.60354 7.14682C4.60354 6.96763 4.45693 6.82102 4.27774 6.82102H0.325799C0.14661 6.82102 0 6.96763 0 7.14682C0 7.32601 0.14661 7.47262 0.325799 7.47262H4.27774C4.45693 7.47262 4.60354 7.32927 4.60354 7.14682ZM0.987172 5.97069L4.93912 5.99349C5.11831 5.99349 5.26491 5.85014 5.26817 5.67095C5.27143 5.4885 5.12482 5.34189 4.94563 5.34189L0.993688 5.31909C0.99043 5.31909 0.99043 5.31909 0.99043 5.31909C0.81124 5.31909 0.66463 5.46244 0.66463 5.64163C0.661372 5.82407 0.807982 5.97069 0.987172 5.97069ZM1.6518 4.49155H5.60375C5.78294 4.49155 5.92955 4.34494 5.92955 4.16576C5.92955 3.98657 5.78294 3.83996 5.60375 3.83996H1.6518C1.47261 3.83996 1.326 3.98657 1.326 4.16576C1.326 4.34494 1.47261 4.49155 1.6518 4.49155ZM15.8795 4.05173L13.5467 2.11973C13.4881 2.07086 13.4164 2.0448 13.3382 2.0448H10.595V0.871921C10.595 0.692731 10.4484 0.546122 10.2692 0.546122H1.97109C1.7919 0.546122 1.64529 0.692731 1.64529 0.871921V3.25678C1.64529 3.43597 1.7919 3.58257 1.97109 3.58257C2.15027 3.58257 2.29688 3.43597 2.29688 3.25678V1.19772H9.94665V8.92243H7.2751C7.09591 8.92243 6.9493 9.06904 6.9493 9.24823C6.9493 9.42742 7.09591 9.57403 7.2751 9.57403H11.2531C11.4323 9.57403 11.5789 9.42742 11.5789 9.24823C11.5789 9.06904 11.4323 8.92243 11.2531 8.92243H10.5982V2.6964H13.2242L15.3484 4.45572L15.3256 8.91591H14.9868C14.8076 8.91591 14.661 9.06252 14.661 9.24171C14.661 9.4209 14.8076 9.56751 14.9868 9.56751H15.6481C15.8273 9.56751 15.9739 9.42416 15.9739 9.24497L16 4.30585C15.9967 4.20811 15.9544 4.11363 15.8795 4.05173Z" fill="#041E42"/>
</svg>
