<svg width="10" height="10" viewBox="0 0 10 10" fill="none" xmlns="http://www.w3.org/2000/svg">
<path d="M2.46387 9.69043V3.85059H0.647461V9.69043H2.46387ZM1.5459 3.06934C2.13184 3.06934 2.60059 2.58105 2.60059 1.99512C2.60059 1.42871 2.13184 0.959961 1.5459 0.959961C0.979492 0.959961 0.510742 1.42871 0.510742 1.99512C0.510742 2.58105 0.979492 3.06934 1.5459 3.06934ZM9.24121 9.69043H9.26074V6.4873C9.26074 4.9248 8.90918 3.71387 7.07324 3.71387C6.19434 3.71387 5.6084 4.20215 5.35449 4.65137H5.33496V3.85059H3.59668V9.69043H5.41309V6.7998C5.41309 6.03809 5.5498 5.31543 6.4873 5.31543C7.4248 5.31543 7.44434 6.1748 7.44434 6.8584V9.69043H9.24121Z" fill="#041E42"/>
</svg>
