<svg width="11" height="10" viewBox="0 0 11 10" fill="none" xmlns="http://www.w3.org/2000/svg">
<path d="M9.47559 2.90918C9.86621 2.61621 10.2178 2.26465 10.4912 1.85449C10.1396 2.01074 9.72949 2.12793 9.31934 2.16699C9.74902 1.91309 10.0615 1.52246 10.2178 1.03418C9.82715 1.26855 9.37793 1.44434 8.92871 1.54199C8.53809 1.13184 8.01074 0.897461 7.4248 0.897461C6.29199 0.897461 5.37402 1.81543 5.37402 2.94824C5.37402 3.10449 5.39355 3.26074 5.43262 3.41699C3.7334 3.31934 2.20996 2.49902 1.19434 1.26855C1.01855 1.56152 0.920898 1.91309 0.920898 2.30371C0.920898 3.00684 1.27246 3.63184 1.83887 4.00293C1.50684 3.9834 1.1748 3.90527 0.901367 3.74902V3.76855C0.901367 4.76465 1.60449 5.58496 2.54199 5.78027C2.38574 5.81934 2.19043 5.8584 2.01465 5.8584C1.87793 5.8584 1.76074 5.83887 1.62402 5.81934C1.87793 6.63965 2.63965 7.22559 3.53809 7.24512C2.83496 7.79199 1.95605 8.12402 0.999023 8.12402C0.823242 8.12402 0.666992 8.10449 0.510742 8.08496C1.40918 8.6709 2.4834 9.00293 3.65527 9.00293C7.4248 9.00293 9.47559 5.89746 9.47559 3.18262C9.47559 3.08496 9.47559 3.00684 9.47559 2.90918Z" fill="#041E42"/>
</svg>
