<svg width="235" height="115" fill="none" xmlns="http://www.w3.org/2000/svg"><path d="M77.115 100.036V87.827H71v-2.766h14.975v2.766h-6.094v12.209h-2.766zm10.333 0v-9.193c0-.79.277-1.463.832-2.018.568-.568 1.247-.852 2.038-.852h6.697v2.724H90.9c-.388 0-.61.028-.665.083-.042.042-.063.257-.063.645v8.611h-2.724zm11.15 0V87.973h2.725v12.063h-2.724zm0-13.27v-2.745h2.725v2.745h-2.724zm7.278 13.27c-.79 0-1.469-.277-2.038-.832a2.815 2.815 0 0 1-.832-2.038v-4.534h9.526v-1.207c0-.388-.028-.603-.083-.645-.042-.055-.257-.083-.645-.083h-8.798v-2.724h9.38c.791 0 1.463.284 2.018.852.568.555.853 1.227.853 2.018v9.193h-9.381zm.583-2.725h6.073v-2.225h-6.801v1.497c0 .389.021.61.062.666.056.041.277.062.666.062zm10.807 2.725V87.973h9.38c.79 0 1.463.284 2.017.852.569.555.853 1.227.853 2.018v9.193h-2.724v-8.61c0-.389-.028-.604-.084-.646-.041-.055-.256-.083-.644-.083h-5.346c-.388 0-.61.028-.665.083-.042.042-.063.257-.063.645v8.611h-2.724zm16.087 4.763v-2.746h6.801c.374 0 .582-.027.624-.083.055-.041.083-.256.083-.645v-1.289h-6.656c-.79 0-1.469-.277-2.038-.832a2.815 2.815 0 0 1-.832-2.038v-6.323c0-.79.277-1.463.832-2.018.569-.568 1.248-.852 2.038-.852h6.531c.791 0 1.463.284 2.018.852a2.75 2.75 0 0 1 .832 2.018v11.086c0 .79-.278 1.463-.832 2.017a2.713 2.713 0 0 1-2.018.853h-7.383zm1.435-7.488h5.366c.374 0 .582-.02.624-.062.055-.056.083-.277.083-.666v-5.158c0-.388-.028-.603-.083-.645-.042-.055-.25-.083-.624-.083h-5.366c-.388 0-.61.028-.666.083-.041.042-.062.257-.062.645v5.158c0 .389.021.61.062.666.056.041.278.062.666.062zm13.844 2.725c-.79 0-1.47-.277-2.038-.832a2.815 2.815 0 0 1-.832-2.038V84h2.745v12.583c0 .389.021.61.062.666.056.041.271.062.645.062h1.851v2.725h-2.433zm6.804 0c-.791 0-1.47-.277-2.039-.832a2.82 2.82 0 0 1-.832-2.038v-6.323c0-.79.278-1.463.832-2.018.569-.568 1.248-.852 2.039-.852h6.51c.79 0 1.463.284 2.017.852.569.555.853 1.227.853 2.018v4.534h-9.526v1.206c0 .389.021.61.063.666.055.041.277.062.665.062h8.798v2.725h-9.38zm-.146-7.113h6.801v-1.498c0-.388-.027-.603-.083-.645-.041-.055-.256-.083-.645-.083h-5.345c-.388 0-.61.028-.665.083-.042.042-.063.257-.063.645v1.498z" fill="#13172B"/><path d="M120.83 28.72c-.23 3.119.727 6.21 2.678 8.654a12.576 12.576 0 0 1 2.623 8.332 12.635 12.635 0 0 1-3.427 8.273 12.436 12.436 0 0 0-3.48 8.428 12.503 12.503 0 0 0 21.034 9.338 12.503 12.503 0 0 0 3.958-8.636c.114-2.8-.722-5.556-2.372-7.821a13.298 13.298 0 0 1-2.655-8.338l.029-.804a13.277 13.277 0 0 1 3.445-8.256 12.486 12.486 0 0 0-9.559-20.77 12.587 12.587 0 0 0-12.274 11.6z" fill="url(#paint0_linear_3011_8390)"/><path d="M96.85 55.037a12.415 12.415 0 0 0 8.834 2.008 12.578 12.578 0 0 1 8.527 1.895 12.628 12.628 0 0 1 5.451 7.104 12.44 12.44 0 0 0 5.559 7.227 12.503 12.503 0 0 0 13.104-21.292 12.43 12.43 0 0 0-7.959-1.856 13.3 13.3 0 0 1-8.548-1.87l-.682-.428a13.272 13.272 0 0 1-5.428-7.11 12.492 12.492 0 0 0-17.678-7.088 12.49 12.49 0 0 0-5.088 4.98 12.586 12.586 0 0 0 3.908 16.43z" fill="url(#paint1_linear_3011_8390)"/><path d="M109.404 55.822a12.414 12.414 0 0 0 6.157-6.647 12.577 12.577 0 0 1 5.904-6.437 12.632 12.632 0 0 1 8.878-1.17 12.44 12.44 0 0 0 9.039-1.2 12.504 12.504 0 0 0 4.922-16.87 12.5 12.5 0 0 0-16.81-5.124 12.431 12.431 0 0 0-5.588 5.965 13.295 13.295 0 0 1-5.893 6.468l-.711.377a13.274 13.274 0 0 1-8.872 1.144 12.49 12.49 0 0 0-13.207 18.663 12.587 12.587 0 0 0 16.181 4.83z" fill="url(#paint2_linear_3011_8390)"/><defs><linearGradient id="paint0_linear_3011_8390" x1="132.191" y1="75.337" x2="137.838" y2="17.866" gradientUnits="userSpaceOnUse"><stop stop-color="#80EDDB"/><stop offset=".14" stop-color="#7DE8DA"/><stop offset=".3" stop-color="#74DAD5"/><stop offset=".47" stop-color="#66C2CE"/><stop offset=".66" stop-color="#51A1C4"/><stop offset=".84" stop-color="#3877B8"/><stop offset="1" stop-color="#1F4EAC"/></linearGradient><linearGradient id="paint1_linear_3011_8390" x1="92.848" y1="38.392" x2="138.894" y2="73.666" gradientUnits="userSpaceOnUse"><stop stop-color="#80EDDB"/><stop offset=".14" stop-color="#7DE8DA"/><stop offset=".3" stop-color="#74DAD5"/><stop offset=".47" stop-color="#66C2CE"/><stop offset=".66" stop-color="#51A1C4"/><stop offset=".84" stop-color="#3877B8"/><stop offset="1" stop-color="#1F4EAC"/></linearGradient><linearGradient id="paint2_linear_3011_8390" x1="92.409" y1="50.486" x2="146.526" y2="28.581" gradientUnits="userSpaceOnUse"><stop stop-color="#80EDDB"/><stop offset=".14" stop-color="#7DE8DA"/><stop offset=".3" stop-color="#74DAD5"/><stop offset=".47" stop-color="#66C2CE"/><stop offset=".66" stop-color="#51A1C4"/><stop offset=".84" stop-color="#3877B8"/><stop offset="1" stop-color="#1F4EAC"/></linearGradient></defs></svg>