<svg width="235" height="115" fill="none" xmlns="http://www.w3.org/2000/svg"><path d="M119.562 11h-8.152l16.764 32.773-8.372 17.12h9.869a3.871 3.871 0 0 0 3.467-2.166l5.906-12.065a6.429 6.429 0 0 0-.051-5.753l-13.417-26.23A6.751 6.751 0 0 0 119.562 11z" fill="url(#paint0_linear_3011_8462)"/><path d="M119.562 11h-8.152l16.764 32.773-8.372 17.12h9.869a3.871 3.871 0 0 0 3.467-2.166l5.906-12.065a6.429 6.429 0 0 0-.051-5.753l-13.417-26.23A6.751 6.751 0 0 0 119.562 11z" fill="url(#paint1_linear_3011_8462)"/><path d="M125.572 14.678c6.682 13.07 7.202 19.698 2.603 29.095l-8.372 17.119h9.869a3.871 3.871 0 0 0 3.467-2.166l5.906-12.064a6.426 6.426 0 0 0-.051-5.754l-13.422-26.23z" fill="url(#paint2_linear_3011_8462)"/><path style="mix-blend-mode:overlay" d="M125.572 14.678c6.682 13.07 7.202 19.698 2.603 29.095l-8.372 17.119h9.869a3.871 3.871 0 0 0 3.467-2.166l5.906-12.064a6.426 6.426 0 0 0-.051-5.754l-13.422-26.23z" fill="url(#paint3_linear_3011_8462)"/><path opacity=".42" d="M138.988 40.904l-3.785-7.402c.267 4.241-.768 8.106-2.969 12.603l-7.236 14.782h4.673a3.87 3.87 0 0 0 3.468-2.166l5.905-12.064a6.414 6.414 0 0 0-.056-5.753z" fill="url(#paint4_linear_3011_8462)"/><path d="M115.134 80.304h8.149l-16.762-32.771 8.381-17.119h-9.869a3.869 3.869 0 0 0-3.468 2.166l-5.908 12.056a6.429 6.429 0 0 0 .05 5.756l13.425 26.236a6.751 6.751 0 0 0 6.002 3.676z" fill="url(#paint5_linear_3011_8462)"/><path d="M115.134 80.304h8.149l-16.762-32.771 8.381-17.119h-9.869a3.869 3.869 0 0 0-3.468 2.166l-5.908 12.056a6.429 6.429 0 0 0 .05 5.756l13.425 26.236a6.751 6.751 0 0 0 6.002 3.676z" fill="url(#paint6_linear_3011_8462)"/><path d="M109.132 76.628c-6.681-13.07-7.201-19.698-2.603-29.095l8.381-17.119h-9.869a3.869 3.869 0 0 0-3.468 2.166l-5.916 12.056a6.429 6.429 0 0 0 .05 5.756l13.425 26.236z" fill="url(#paint7_linear_3011_8462)"/><path d="M109.132 76.628c-6.681-13.07-7.201-19.698-2.603-29.095l8.381-17.119h-9.869a3.869 3.869 0 0 0-3.468 2.166l-5.916 12.056a6.429 6.429 0 0 0 .05 5.756l13.425 26.236z" fill="url(#paint8_linear_3011_8462)"/><path opacity=".32" d="M95.707 50.398l3.785 7.399c-.267-4.239.766-8.103 2.969-12.603l7.236-14.78h-4.662a3.863 3.863 0 0 0-3.468 2.166l-5.91 12.056a6.43 6.43 0 0 0 .05 5.762z" fill="url(#paint9_linear_3011_8462)"/><path d="M73.463 90v14.218H70V90h3.463zm17.255 14.218h-3.463l-5.793-8.77v8.77H78V90h3.463l5.793 8.81V90h3.463v14.218zM104.51 90v2.775h-5.792v2.997h4.334v2.694h-4.334v5.752h-3.464V90h9.256zm7.309 0v14.218h-3.463V90h3.463zm17.255 14.218h-3.463l-5.793-8.77v8.77h-3.463V90h3.463l5.793 8.81V90h3.463v14.218zm8-14.218v14.218h-3.464V90h3.464zm14.763 0v2.775h-3.767v11.443h-3.464V92.775h-3.767V90h10.998zm7.227 2.775v2.876h4.638v2.673h-4.638v3.119h5.246v2.775h-8.709V90h8.709v2.775h-5.246z" fill="#13172B"/><defs><linearGradient id="paint0_linear_3011_8462" x1="111.41" y1="35.947" x2="139.692" y2="35.947" gradientUnits="userSpaceOnUse"><stop stop-color="#8A0BFF"/><stop offset="1" stop-color="#2A0056"/></linearGradient><linearGradient id="paint1_linear_3011_8462" x1="107.124" y1="27.871" x2="131.388" y2="42.4" gradientUnits="userSpaceOnUse"><stop stop-color="#8A0BFF" stop-opacity="0"/><stop offset="1" stop-color="#2A0056"/></linearGradient><linearGradient id="paint2_linear_3011_8462" x1="129.744" y1="60.892" x2="129.744" y2="14.678" gradientUnits="userSpaceOnUse"><stop stop-color="#A553FF"/><stop offset="1" stop-color="#AE38FF"/></linearGradient><linearGradient id="paint3_linear_3011_8462" x1="127.634" y1="39.388" x2="146.564" y2="45.517" gradientUnits="userSpaceOnUse"><stop stop-color="#AF53FF"/><stop offset=".16" stop-color="#AF4DFF" stop-opacity=".8"/><stop offset=".39" stop-color="#AF46FF" stop-opacity=".52"/><stop offset=".6" stop-color="#AE40FF" stop-opacity=".29"/><stop offset=".78" stop-color="#AE3CFF" stop-opacity=".13"/><stop offset=".92" stop-color="#AE39FF" stop-opacity=".04"/><stop offset="1" stop-color="#AE38FF" stop-opacity="0"/></linearGradient><linearGradient id="paint4_linear_3011_8462" x1="115.225" y1="39.882" x2="140.316" y2="52.227" gradientUnits="userSpaceOnUse"><stop stop-color="#8A0BFF"/><stop offset="1" stop-color="#2A0056" stop-opacity="0"/></linearGradient><linearGradient id="paint5_linear_3011_8462" x1="95.004" y1="55.359" x2="123.283" y2="55.359" gradientUnits="userSpaceOnUse"><stop stop-color="#3D0056"/><stop offset="1" stop-color="#FF0BA2"/></linearGradient><linearGradient id="paint6_linear_3011_8462" x1="108.642" y1="48.957" x2="125.28" y2="71.824" gradientUnits="userSpaceOnUse"><stop stop-color="#3D0056"/><stop offset="1" stop-color="#E33FC5"/></linearGradient><linearGradient id="paint7_linear_3011_8462" x1="104.953" y1="76.628" x2="104.953" y2="30.414" gradientUnits="userSpaceOnUse"><stop stop-color="#DF38FF"/><stop offset="1" stop-color="#FF39FF"/></linearGradient><linearGradient id="paint8_linear_3011_8462" x1="89.621" y1="43.265" x2="123.741" y2="58.89" gradientUnits="userSpaceOnUse"><stop stop-color="#9E0082"/><stop offset="1" stop-color="#FF39FF" stop-opacity="0"/></linearGradient><linearGradient id="paint9_linear_3011_8462" x1="-1465.67" y1="-9064.5" x2="-3070.95" y2="-9488.4" gradientUnits="userSpaceOnUse"><stop stop-color="#8A0BFF"/><stop offset="1" stop-color="#2A0056" stop-opacity="0"/></linearGradient></defs></svg>