<svg width="235" height="115" fill="none" xmlns="http://www.w3.org/2000/svg"><path d="M82.838 103.745H79.01l-6.07-6.714v6.714H70V88.57h2.94v6.772l6.203-6.772h3.49l-6.848 7.455 7.053 7.72zm5.485-.058c-.234.108-.479.191-.73.247-.277.064-.56.096-.844.095a4.197 4.197 0 0 1-1.169-.161 2.458 2.458 0 0 1-1.64-1.461 3.558 3.558 0 0 1-.248-1.394V88h2.789v12.539c0 .455.092.767.275.939a.924.924 0 0 0 .65.259c.324-.003.64-.102.908-.284l.01 2.234z" fill="#13172B"/><path d="M122.58 88.02h-2.846v2.845h2.846V88.02z" fill="#D91C5C"/><path d="M122.542 92.762h-2.769v10.982h2.769V92.762zm12.293 9.333a5.47 5.47 0 0 1-2.016 1.442 6.313 6.313 0 0 1-2.467.492 5.866 5.866 0 0 1-2.251-.436 5.556 5.556 0 0 1-3.072-3.035 5.814 5.814 0 0 1-.457-2.287 5.714 5.714 0 0 1 .457-2.275 5.845 5.845 0 0 1 1.225-1.83 5.623 5.623 0 0 1 1.829-1.218 5.798 5.798 0 0 1 2.269-.452 6.327 6.327 0 0 1 2.386.452c.753.305 1.425.78 1.963 1.389l-1.84 1.877a3.596 3.596 0 0 0-1.015-.909 2.949 2.949 0 0 0-2.636-.096 3.285 3.285 0 0 0-1.66 1.763 3.474 3.474 0 0 0-.193 1.914c.117.643.414 1.24.857 1.721.28.299.615.54.986.712a2.77 2.77 0 0 0 1.195.259 2.88 2.88 0 0 0 1.48-.389c.427-.244.79-.585 1.062-.996l1.898 1.902zm12.577-3.825a5.681 5.681 0 0 1-.455 2.286 5.59 5.59 0 0 1-1.252 1.818 5.973 5.973 0 0 1-4.154 1.659 5.853 5.853 0 0 1-2.277-.446 5.91 5.91 0 0 1-1.859-1.223 5.67 5.67 0 0 1-1.706-4.094 5.472 5.472 0 0 1 .465-2.248 5.845 5.845 0 0 1 5.377-3.52 5.974 5.974 0 0 1 4.154 1.66c.536.52.962 1.142 1.252 1.83.306.72.461 1.496.455 2.278zm-2.726 0a3.449 3.449 0 0 0-.916-2.372c-.28-.3-.618-.542-.993-.71a2.98 2.98 0 0 0-2.42 0 3.036 3.036 0 0 0-.993.71c-.289.31-.516.67-.672 1.063a3.504 3.504 0 0 0 .672 3.679 2.983 2.983 0 0 0 3.413.712 3.06 3.06 0 0 0 .993-.712c.594-.645.92-1.493.91-2.37h.006zm20.573 5.474h-2.727v-6.543c0-.772-.188-1.358-.56-1.755a1.812 1.812 0 0 0-1.373-.599 3.33 3.33 0 0 0-2.275.855c.119.49.176.994.17 1.499v6.543h-2.726v-6.543c0-.772-.187-1.357-.56-1.755a1.787 1.787 0 0 0-1.357-.599 2.594 2.594 0 0 0-1.099.218 3.887 3.887 0 0 0-.987.694v7.985h-2.726V92.779h2.726v.817c.352-.335.76-.605 1.206-.796.445-.2.928-.303 1.415-.305a3.908 3.908 0 0 1 1.605.36c.541.242 1.023.596 1.415 1.04a5.11 5.11 0 0 1 3.647-1.405c.551-.001 1.1.086 1.624.26.502.165.96.444 1.338.815.399.407.709.894.909 1.428.243.665.359 1.37.341 2.077l-.006 6.674zm-55.345-62.16l19.301-19.299h5.588L112.708 44.38l-2.794-2.795z" fill="#13172B"/><path d="M136.051 67.098a44056.776 44056.776 0 0 1-21.44-21.243l25.617-25.714a32.505 32.505 0 0 1-2.341 48.775l-1.836-1.818z" fill="#D91C5C"/><path d="M98.453 103.746h-2.726v-.588c-.462.321-.98.552-1.527.682a7.14 7.14 0 0 1-1.66.19 4.158 4.158 0 0 1-1.441-.236 3.227 3.227 0 0 1-1.12-.683 3.063 3.063 0 0 1-.73-1.053 3.439 3.439 0 0 1-.26-1.347 3.147 3.147 0 0 1 .408-1.622 3.547 3.547 0 0 1 1.11-1.158 5.156 5.156 0 0 1 1.64-.69 8.48 8.48 0 0 1 2.02-.229h1.575c0-.644-.209-1.156-.627-1.536-.418-.38-1.018-.57-1.802-.57a3.46 3.46 0 0 0-2.39.968l-1.613-1.627a6.201 6.201 0 0 1 2.02-1.298 6.379 6.379 0 0 1 2.362-.456c.693-.012 1.381.11 2.027.36a4.152 4.152 0 0 1 2.438 2.548c.195.594.292 1.352.292 2.276l.004 6.069zm-2.726-2.726v-2.035H94.47a7.193 7.193 0 0 0-1.072.076c-.302.042-.596.13-.873.26-.23.106-.43.265-.588.464a1.09 1.09 0 0 0-.218.683 1.137 1.137 0 0 0 .446.931c.328.25.734.377 1.147.359.409 0 .816-.064 1.205-.189a5.743 5.743 0 0 0 1.205-.555l.005.006zm12.78-.345a2.775 2.775 0 0 1-.381 1.45c-.25.42-.587.782-.989 1.062-.417.291-.879.51-1.368.649a5.664 5.664 0 0 1-3.812-.248 4.792 4.792 0 0 1-1.852-1.492l1.65-1.668c.308.4.696.731 1.138.975.424.233.901.354 1.385.352.372.013.74-.068 1.071-.236a.771.771 0 0 0 .427-.713c0-.327-.202-.604-.606-.825a8.855 8.855 0 0 0-1.708-.649 8.243 8.243 0 0 1-1.252-.484 4.636 4.636 0 0 1-1.081-.72 3.459 3.459 0 0 1-.758-.977 2.724 2.724 0 0 1-.284-1.272c-.007-.5.121-.994.369-1.428.244-.419.575-.78.97-1.062.415-.29.874-.508 1.359-.649a5.347 5.347 0 0 1 1.541-.228c1.672 0 3.041.632 4.107 1.898l-1.632 1.65a3.749 3.749 0 0 0-1.082-.93 2.662 2.662 0 0 0-1.33-.355 2.361 2.361 0 0 0-1.039.26 1.153 1.153 0 0 0-.389.322.717.717 0 0 0-.151.446c0 .29.193.543.578.758.53.273 1.086.49 1.66.649.459.135.903.313 1.328.53.398.202.767.454 1.1.75.308.273.562.6.749.967.189.378.286.795.282 1.218zm9.632-.001a2.766 2.766 0 0 1-.381 1.45 3.46 3.46 0 0 1-.989 1.062c-.418.291-.88.51-1.369.649a5.45 5.45 0 0 1-1.502.218 5.652 5.652 0 0 1-2.311-.466 4.795 4.795 0 0 1-1.853-1.489l1.651-1.668c.308.4.695.732 1.137.975.424.233.901.354 1.385.352.372.013.741-.069 1.073-.236a.775.775 0 0 0 .425-.713c0-.327-.202-.604-.606-.825a8.84 8.84 0 0 0-1.707-.649 8.223 8.223 0 0 1-1.253-.484 4.658 4.658 0 0 1-1.081-.72 3.443 3.443 0 0 1-.758-.977 2.737 2.737 0 0 1-.285-1.272c-.006-.5.121-.993.37-1.428.245-.419.575-.78.97-1.062.415-.29.875-.509 1.361-.649a5.327 5.327 0 0 1 1.539-.228c1.672 0 3.041.632 4.107 1.898l-1.632 1.65a3.74 3.74 0 0 0-1.082-.93 2.66 2.66 0 0 0-1.326-.341c-.176.002-.35.024-.52.066-.18.042-.354.106-.519.19a1.135 1.135 0 0 0-.389.323.712.712 0 0 0-.152.445c0 .29.192.544.579.758.529.273 1.085.49 1.659.65.458.134.903.312 1.328.53.397.201.767.453 1.099.75.308.272.563.6.751.966.187.374.284.787.281 1.205zm5.902-36.411l-18.795-18.798v18.798h-3.951V22.734h3.951v17.141l24.387 24.388h-5.592z" fill="#13172B"/><path d="M107.635 12.564a32.585 32.585 0 0 1 25.463 2.352l-8.582 8.618a57420.83 57420.83 0 0 1-16.88 16.956l-.001-27.926zM117.629 76a32.453 32.453 0 0 1-9.994-1.568V51.227c1.761 1.744 7.507 7.425 13.537 13.389l8.981 8.881A32.281 32.281 0 0 1 117.629 76zm-18.725-5.933a32.506 32.506 0 0 1 0-53.137v53.137z" fill="#D91C5C"/></svg>