<svg fill="none" height="115" viewBox="0 0 235 115" width="235" xmlns="http://www.w3.org/2000/svg" xmlns:xlink="http://www.w3.org/1999/xlink"><linearGradient id="a" gradientUnits="userSpaceOnUse" x1="115.051" x2="88.573" y1="48.1524" y2="48.1524"><stop offset="0" stop-color="#d70fe0"/><stop offset=".31" stop-color="#8c0fe0"/><stop offset=".46" stop-color="#6235ec"/><stop offset=".61" stop-color="#3062fb"/><stop offset=".68" stop-color="#3166fb"/><stop offset=".75" stop-color="#3272f9"/><stop offset=".82" stop-color="#3586f8"/><stop offset=".89" stop-color="#38a1f5"/><stop offset=".96" stop-color="#3dc5f1"/><stop offset="1" stop-color="#40deef"/></linearGradient><linearGradient id="b" gradientUnits="userSpaceOnUse" x1="132.149" x2="88.5728" y1="24.2795" y2="24.2795"><stop offset="0" stop-color="#a80fe0"/><stop offset=".23" stop-color="#7e2ce9"/><stop offset=".61" stop-color="#3062fb"/><stop offset=".68" stop-color="#3166fb"/><stop offset=".75" stop-color="#3272f9"/><stop offset=".82" stop-color="#3586f8"/><stop offset=".89" stop-color="#38a1f5"/><stop offset=".96" stop-color="#3dc5f1"/><stop offset="1" stop-color="#40deef"/></linearGradient><linearGradient id="c"><stop offset="0" stop-color="#8c0fe0"/><stop offset=".29" stop-color="#6235ec"/><stop offset=".61" stop-color="#3062fb"/><stop offset=".68" stop-color="#3166fb"/><stop offset=".75" stop-color="#3272f9"/><stop offset=".82" stop-color="#3586f8"/><stop offset=".89" stop-color="#38a1f5"/><stop offset=".96" stop-color="#3dc5f1"/><stop offset="1" stop-color="#40deef"/></linearGradient><linearGradient id="d" gradientUnits="userSpaceOnUse" x1="142.541" x2="134.418" xlink:href="#c" y1="61.0045" y2="61.0045"/><linearGradient id="e" gradientUnits="userSpaceOnUse" x1="-38564.7" x2="-37835.5" xlink:href="#c" y1="18667.1" y2="18667.1"/><linearGradient id="f" gradientUnits="userSpaceOnUse" x1="142.737" x2="129.076" y1="16.5631" y2="27.6071"><stop offset=".18" stop-color="#8c0fe0"/><stop offset=".39" stop-color="#6235ec"/><stop offset=".61" stop-color="#3062fb"/><stop offset=".68" stop-color="#3166fb"/><stop offset=".75" stop-color="#3272f9"/><stop offset=".82" stop-color="#3586f8"/><stop offset=".89" stop-color="#38a1f5"/><stop offset=".96" stop-color="#3dc5f1"/><stop offset="1" stop-color="#40deef"/></linearGradient><linearGradient id="g" gradientUnits="userSpaceOnUse" x1="-38544.2" x2="-37815.6" xlink:href="#c" y1="22237" y2="22237"/><linearGradient id="h" gradientUnits="userSpaceOnUse" x1="-139253" x2="-131511" xlink:href="#c" y1="112524" y2="112524"/><linearGradient id="i" gradientUnits="userSpaceOnUse" x1="143.948" x2="112.267" y1="27.7865" y2="61.7925"><stop offset=".18" stop-color="#ac0fe0"/><stop offset=".33" stop-color="#822be9"/><stop offset=".58" stop-color="#3062fb"/><stop offset=".66" stop-color="#3166fb"/><stop offset=".73" stop-color="#3272f9"/><stop offset=".81" stop-color="#3586f8"/><stop offset=".88" stop-color="#38a1f5"/><stop offset=".95" stop-color="#3dc5f1"/><stop offset="1" stop-color="#40deef"/></linearGradient><linearGradient id="j"><stop offset="0" stop-color="#fff"/><stop offset=".01" stop-color="#fafafa"/><stop offset=".13" stop-color="#c0c0c0"/><stop offset=".25" stop-color="#8d8d8d"/><stop offset=".37" stop-color="#626262"/><stop offset=".5" stop-color="#3e3e3e"/><stop offset=".62" stop-color="#232323"/><stop offset=".74" stop-color="#0f0f0f"/><stop offset=".87" stop-color="#040404"/><stop offset="1"/></linearGradient><linearGradient id="k" gradientUnits="userSpaceOnUse" x1="88.4999" x2="115.127" xlink:href="#j" y1="48.154" y2="48.154"/><linearGradient id="l" gradientUnits="userSpaceOnUse" x1="11868.3" x2="32999.4" xlink:href="#j" y1="8217.93" y2="8217.93"/><linearGradient id="m" gradientUnits="userSpaceOnUse" x1="6554.48" x2="7310.74" xlink:href="#j" y1="5964.01" y2="5964.01"/><linearGradient id="n" gradientUnits="userSpaceOnUse" x1="2764.8" x2="3520.51" xlink:href="#j" y1="5962.31" y2="5962.31"/><linearGradient id="o" gradientUnits="userSpaceOnUse" x1="6551.05" x2="7306.55" xlink:href="#j" y1="2170.83" y2="2170.83"/><linearGradient id="p" gradientUnits="userSpaceOnUse" x1="2764.78" x2="3520.13" xlink:href="#j" y1="2169.57" y2="2169.57"/><linearGradient id="q" gradientUnits="userSpaceOnUse" x1="16806" x2="24635.3" xlink:href="#j" y1="17409" y2="17409"/><linearGradient id="r" gradientUnits="userSpaceOnUse" x1="19247.4" x2="40444.5" xlink:href="#j" y1="17890.1" y2="17890.1"/><g fill="#323232"><path d="m82 88.4336h2.7415c1.7315 0 2.8859.1443 3.6073.2886.5772.1443 1.1543.4328 1.4429.8657s.5772.8658.5772 1.2986c.1443.4329.1443 1.443.1443 3.0302v5.483c0 1.4433 0 2.3083-.1443 2.7413s-.2886.866-.5772 1.155c-.2886.288-.7214.432-1.1543.577-.4329.144-1.1543.144-2.0201.144h-4.6173zm3.6073 2.7415v10.2449c.5771 0 .8657-.145 1.01-.289.1443-.288.1443-.866.1443-1.8756v-6.0602c0-.7215 0-1.1543 0-1.2986s-.1443-.2886-.2886-.4329c-.1443-.2886-.4329-.2886-.8657-.2886z"/><path d="m96.5738 88.4336v15.5834h-3.7515v-15.5834z"/><path d="m107.396 94.2045h-3.607v-1.4429c0-.8657 0-1.4429-.145-1.7315-.144-.2886-.288-.2886-.432-.2886-.289 0-.433.1443-.433.2886-.145.1443-.145.7215-.145 1.4429v7.5032c0 .7218 0 1.1538.145 1.4428.144.289.288.289.433.289.288 0 .432-.145.577-.433.144-.289.144-.722.144-1.4431v-1.8758h-.721v-2.3087h4.328v8.3686h-2.453l-.288-1.154c-.289.433-.577.866-1.01 1.01-.433.289-.866.289-1.299.289-.577 0-1.154-.145-1.731-.433-.578-.289-1.0104-.722-1.1547-1.155-.2886-.432-.4329-1.01-.5772-1.587 0-.577-.1443-1.2984-.1443-2.4528v-4.6173c0-1.4429 0-2.5972.1443-3.1744.1443-.7214.5772-1.2986 1.2989-1.8758.721-.5771 1.587-.8657 2.597-.8657s2.02.2886 2.597.7215c.722.4328 1.155 1.01 1.443 1.7314.144.7215.289 1.5872.289 2.8859v.8657z"/><path d="m113.453 88.4336v15.5834h-3.607v-15.5834z"/><path d="m123.413 88.4336v3.1744h-2.165v12.409h-3.607v-12.409h-2.164v-3.1744z"/><path d="m125.287 88.4336h6.06v3.1744h-2.453v2.8858h2.309v3.0301h-2.309v3.4631h2.742v3.174h-6.349z"/><path d="m142.167 95.2148h-3.607v-2.7415c0-.7215 0-1.2987-.144-1.4429-.144-.1443-.289-.2886-.577-.2886-.289 0-.433.1443-.577.2886-.145.2885-.145.7214-.145 1.5872v7.2145c0 .7219 0 1.2989.145 1.4429.144.289.288.289.577.289.288 0 .433-.145.577-.289.144-.289.144-.721.144-1.5872v-2.0201h3.607v.5772c0 1.5872-.144 2.7411-.288 3.4631-.144.721-.722 1.299-1.299 1.731-.721.578-1.587.722-2.597.722s-1.876-.144-2.597-.577c-.722-.433-1.155-1.01-1.443-1.732-.289-.721-.289-1.8756-.289-3.4628v-4.6173c0-1.1543 0-2.0201.145-2.453 0-.5771.288-1.1543.577-1.5872.288-.5771.865-.8657 1.443-1.1543.577-.2886 1.298-.4329 2.164-.4329 1.01 0 2.02.2886 2.597.7215.722.4329 1.155 1.01 1.443 1.7315.289.7214.289 1.7315.289 3.1744v1.4429z"/><path d="m152.99 88.4336v15.5834h-3.607v-6.4931h-1.155v6.4931h-3.607v-15.5834h3.607v5.6273h1.155v-5.6273z"/></g><path d="m103.833 31.8035c-.016.166-.022.3327-.019.4994.034 2.3213-.871 4.7123-2.549 6.3534-.814.8015-1.6227 1.6003-2.4124 2.4253-.785.8063-1.7415 1.4254-2.7984 1.8114-1.057.3861-2.1873.5291-3.3072.4186-.1257-.0126-.2524-.019-.379-.0226-2.1712-.0498-4.2419 1.6085-3.7091 3.919.5247 2.2779 1.196 4.8987 5.1167 4.8354.122.0123.243.0334.3619.0633 2.401.3103 4.63 1.5469 6.3115 3.2658.86.8968 1.706 1.806 2.538 2.7275 1.568 1.7695 2.793 3.957 3.202 6.301.025.1402.056.2831.096.4279.332 1.2176 1.094 2.305 1.981 3.1853.834.825 1.885 1.5741 3.04 1.8319 2.316.5165 3.811-1.5841 3.743-3.6793-.091-2.6723-2.416-4.9149-5.042-5.247l-.09-.0108c-2.23-.247-4.223-1.4701-5.738-3.0867-1.188-1.2946-2.343-2.6163-3.564-3.8792-1.5082-1.5786-2.7919-3.5498-3.0479-5.7635.0005-.0094.0005-.0187 0-.0281 0-.009 0-.019 0-.028-.2552-2.0545.4432-3.9995 1.85-5.5284 1.1019-1.1688 2.1799-2.3521 3.3319-3.4766 1.628-1.594 3.87-2.4371 6.111-2.5221h.105c2.878-.143 5.493-2.4028 5.537-5.3818.01-.6617-.119-1.318-.377-1.9272-.259-.6091-.641-1.1577-1.124-1.6107-.482-.4529-1.053-.8003-1.678-1.02-.624-.2197-1.287-.3068-1.947-.2558-2.786.199-5.284 2.6262-5.543 5.4026z" fill="url(#a)"/><path d="m126.688 26.4019c-.175-.0163-.351-.0235-.527-.0217-2.43.0262-5.032-.8423-6.746-2.6299-.801-.8305-1.594-1.67-2.396-2.4995-1.538-1.6348-2.324-3.8304-2.013-6.0721.017-.1221.029-.2452.036-.3682.082-1.4773-.701-3.093-2.178-3.5707-1.673-.5428-4.038.3302-5.282 1.4357-.723.6432-1.024 1.5524-1.285 2.4878-.239.8567-.097 1.6782-.362 2.5466-.567 1.8772-1.636 3.6187-2.958 5.0661-.845.9173-1.697 1.825-2.559 2.723-1.6624 1.6935-3.877 2.9257-6.2336 3.2893-.143.0227-.285.0706-.4361.0905-3.1717.4134-4.5793 2.6706-5.0968 4.9593-.2153.949-.0081 1.9559.6903 2.6579.7807.7862 1.9178 1.0413 2.9799.9816 2.5864-.1439 4.8788-2.3096 5.2542-4.8906.0046-.0299.0082-.0597.0127-.0905.2714-2.1829 1.547-4.137 3.0554-5.6857 1.234-1.2512 2.4-2.5647 3.597-3.8521 1.505-1.5876 3.467-2.8171 5.676-3.0658h.028.028c2.067-.2343 4.029.4631 5.519 1.9296 1.135 1.1489 2.241 2.3286 3.385 3.4694 1.591 1.5846 2.513 3.7196 2.576 5.9644v.0995c.115 2.9763 2.777 5.2171 5.672 5.2813 2.714.0607 5.209-1.9187 5.003-4.7756-.191-2.7891-2.694-5.2036-5.44-5.4596z" fill="url(#b)"/><path d="m134.79 62.8825c.938-2.4154 3.143-4.6237 5.561-5.5564.46-.1809 1.628-.6586 2.071-.1483.407.4722-.346 1.3434-.608 1.6881-.777 1.0195-1.712 1.9423-2.624 2.8523-.912.9101-1.835 1.8492-2.855 2.6235-.349.266-1.216 1.0096-1.69.5926-.505-.4433-.036-1.5868.145-2.0518z" fill="url(#d)"/><path d="m94.156 58.8673c-.2542-.3347-1.016-1.2141-.6089-1.6818.4415-.5075 1.6049-.0217 2.0708.1602 2.4199.9444 4.6141 3.1663 5.5611 5.5826.181.4605.652 1.5958.145 2.0264-.475.4026-1.3502-.351-1.6903-.6097-1.0196-.7762-1.9441-1.7125-2.8551-2.6235s-1.8455-1.8347-2.6226-2.8542z" fill="url(#e)"/><path d="m134.784 18.0974c-.181-.4523-.645-1.5832-.139-2.0138.478-.4062 1.345.3384 1.694.6043 1.02.7753 1.942 1.7125 2.853 2.6235s1.849 1.8347 2.624 2.8542c.256.3375 1.015 1.215.596 1.6727-.452.494-1.628-.0099-2.081-.1936-2.394-.9589-4.604-3.1446-5.547-5.5473z" fill="url(#f)"/><path d="m94.1569 22.1652c.7771-1.0205 1.7134-1.945 2.6235-2.8569s1.8337-1.8446 2.8524-2.6235c.3401-.2587 1.2152-1.0132 1.6922-.6206.51.417.039 1.5379-.139 1.9902-.948 2.4055-3.1499 4.6029-5.5446 5.5727-.4641.1873-1.6283.6948-2.0807.2036-.4197-.456.3474-1.338.5962-1.6655z" fill="url(#g)"/><path d="m125.941 19.9079.103.0127c2.373.2659 4.512 1.6012 6.128 3.3128.956 1.0341 1.9 2.0807 2.895 3.084 1.628 1.6682 3.017 3.7507 3.313 6.1137v.0289l.013.0977c.311 2.2001-.423 4.3017-2.03 5.8586-.802.7572-1.62 1.4999-2.383 2.2978-1.75 1.8383-4.231 2.761-6.73 2.7429h-.125c-3.017.0272-5.609 2.4761-5.666 5.5184-.055 2.8813 2.215 5.4687 5.193 5.2642 2.885-.1981 5.353-2.8316 5.555-5.6839 0-.0398.006-.0787.007-.1176.113-2.411 1.037-4.9232 2.758-6.6547.801-.7997 1.607-1.5931 2.442-2.3621 1.672-1.5062 3.867-2.1874 6.102-1.9766.03 0 .061.0063.091.0081 1.069.0733 2.213-.1809 3.005-.9707.712-.7065.895-1.6926.706-2.6606-.633-3.2721-2.187-4.5314-5.151-4.9647-.058-.0091-.115-.0272-.172-.0389-2.451-.5066-4.716-1.7867-6.473-3.5644-.804-.8268-1.598-1.6627-2.383-2.5077-1.619-1.7722-2.916-3.975-3.422-6.3326-.017-.0805-.038-.161-.059-.2433-.594-2.2038-2.727-4.4862-4.989-4.982-2.28-.5002-3.815 1.471-3.745 3.5834.084 2.6244 2.462 4.7965 5.017 5.1366z" fill="url(#h)"/><path d="m109.23 54.1373c.178.0155.356.0207.533.0154 2.509-.0724 5.076.9137 6.792 2.77.796.8567 1.576 1.727 2.37 2.5864 1.547 1.7107 2.326 3.9317 2.025 6.2322-.016.1249-.029.2524-.034.3763-.091 2.1341 1.42 4.2519 3.762 3.7245 1.176-.2623 2.707-.7092 3.541-1.556.883-.8965 1.162-2.3277 1.478-3.5571.03-.1212.057-.2406.077-.3573.414-2.3521 1.661-4.5839 3.244-6.3498.834-.9119 1.68-1.812 2.539-2.7004 1.68-1.6999 3.873-2.9112 6.257-3.2161.143-.0181.285-.076.437-.0769 3.02-.019 4.572-2.5529 5.066-4.8354.505-2.3376-1.508-3.9026-3.657-3.9099-2.634-.0081-4.875 2.1875-5.24 4.7721-.004.0307-.008.0615-.013.0905-.277 2.2308-1.537 4.2066-3.066 5.8051-1.221 1.2665-2.384 2.5747-3.566 3.8729-1.495 1.6084-3.482 2.8813-5.705 3.1183h-.028-.029c-2.094.2497-4.078-.4786-5.573-1.9893-1.148-1.1996-2.245-2.4426-3.36-3.6711-1.593-1.7497-2.509-4.0108-2.584-6.376 0-.0353 0-.0706 0-.1059-.115-3.0188-2.682-5.4279-5.69-5.4279-2.829 0-5.232 2.2263-5.041 5.124.181 2.8306 2.627 5.4053 5.465 5.6414z" fill="url(#i)"/><path d="m112.007 69.9997c-.24-.0009-.48-.0282-.714-.0815-1.289-.2876-2.383-1.1652-3.076-1.8509-1.008-.9951-1.7-2.1115-2.001-3.2179-.039-.1447-.072-.2913-.097-.4351-.48-2.7492-1.998-4.924-3.186-6.2647-.851-.9418-1.704-1.8591-2.533-2.7258-1.758-1.7957-3.9808-2.9482-6.2687-3.2441-.0499-.007-.0995-.017-.1483-.0298-.0667-.02-.1358-.0309-.2054-.0326-1.7767.029-3.0496-.484-3.89-1.5678-.7581-.9761-1.0575-2.2779-1.2982-3.3246-.2804-1.2194.1665-2.097.5917-2.618.7237-.8866 1.945-1.4176 3.1916-1.3905.1393 0 .2651.0109.3845.0226 1.109.1098 2.2285-.0317 3.2754-.414 1.0468-.3823 1.994-.9956 2.7713-1.7942.8142-.8468 1.6621-1.6863 2.4141-2.4263 1.617-1.5823 2.562-3.9371 2.525-6.3001-.002-.1694.005-.3388.02-.5075.263-2.8089 2.775-5.2651 5.602-5.475.672-.0498 1.347.0404 1.982.2649.636.2246 1.217.5786 1.709 1.0397.489.4571.877 1.0122 1.138 1.6292.26.6169.388 1.2818.374 1.9514-.021 1.4293-.633 2.7818-1.728 3.8068-1.061.9845-2.433 1.5673-3.879 1.6474h-.09-.016c-2.321.0904-4.53.9996-6.062 2.5004-.877.8531-1.727 1.7614-2.547 2.6407-.2606.2787-.5218.5567-.7835.8341-1.4258 1.5506-2.0753 3.4929-1.8301 5.4696l.0072.0561c.2235 1.9278 1.2421 3.8529 3.0274 5.7219.825.8522 1.629 1.7451 2.411 2.609.378.418.768.8495 1.155 1.2711 1.641 1.7514 3.662 2.8388 5.691 3.0631l.09.0109c1.337.1807 2.575.8036 3.516 1.7695.983.9951 1.548 2.2616 1.59 3.5499.041 1.2538-.466 2.4742-1.322 3.1835-.5.4252-1.135.6587-1.791.6586zm-18.2239-18.0289c.0792.0025.1579.0147.2343.0361.0435.0116.0876.021.132.0281 2.316.2994 4.5731 1.4664 6.3546 3.2866.833.8685 1.688 1.7867 2.539 2.7303 1.201 1.3569 2.735 3.5544 3.222 6.3326.024.1402.056.2813.09.4215.294 1.0856.973 2.1712 1.962 3.1528.679.6721 1.75 1.5324 3.004 1.8093.893.199 1.719.0126 2.383-.5428.824-.6812 1.31-1.8564 1.267-3.0659-.042-1.253-.591-2.4788-1.548-3.4522-.919-.9421-2.126-1.5497-3.43-1.7261l-.091-.0108c-2.064-.228-4.118-1.3317-5.783-3.1084-.388-.4234-.778-.8549-1.155-1.2729-.78-.863-1.585-1.7559-2.409-2.6063-1.809-1.8925-2.8403-3.8466-3.0674-5.8061l-.0063-.0552c-.2515-2.0201.4116-4.004 1.8672-5.5871.2624-.278.5235-.5564.7835-.835.822-.8802 1.673-1.7894 2.552-2.6452 1.559-1.5262 3.8-2.4525 6.16-2.5421h.016.091c1.41-.0784 2.749-.647 3.785-1.6076 1.063-.9951 1.661-2.3123 1.682-3.7018.013-.6493-.111-1.294-.363-1.8922-.253-.5983-.629-1.1366-1.103-1.5799-.477-.4475-1.042-.7911-1.658-1.0091-.617-.218-1.272-.3057-1.924-.2574-2.758.2044-5.211 2.6009-5.466 5.3429-.015.163-.022.3266-.02.4903.037 2.4028-.924 4.7947-2.57 6.4077-.75.7391-1.6009 1.5768-2.4106 2.4236-.7927.8143-1.7586 1.4396-2.8261 1.8294s-2.2091.5341-3.34.4222c-.1158-.0108-.238-.018-.3727-.0217-1.2014-.0271-2.3811.4849-3.0759 1.3362-.283.343-.4808.7482-.577 1.1823-.0963.4342-.0882.885.0234 1.3155.4903 2.1322 1.1 4.7793 4.9077 4.7793h.1448z" fill="url(#k)"/><path d="m92.0384 37.5579c-.7554 0-1.8998-.1628-2.7438-1.0114-.6767-.6803-.9427-1.6998-.7102-2.7257.4623-2.0418 1.7324-4.5694 5.1566-5.0163.0776-.0112.1547-.0266.2307-.0462.066-.0163.1348-.0325.2035-.0434 2.268-.3501 4.4681-1.5108 6.1928-3.2676.835-.8676 1.696-1.7831 2.557-2.7221 1.385-1.5108 2.403-3.2523 2.942-5.0371.133-.4379.161-.8749.188-1.2973.013-.4215.071-.8403.174-1.2494.266-.9544.566-1.8654 1.307-2.523.643-.5718 1.557-1.0648 2.507-1.3516 1.053-.3175 2.063-.3528 2.846-.0995 1.567.5066 2.307 2.2164 2.228 3.6439-.006.124-.019.2506-.036.3746-.3 2.1594.426 4.3514 1.99 6.0114.419.4342.843.8775 1.253 1.3072.381.3981.762.7955 1.143 1.1924 1.569 1.6374 4.023 2.6081 6.582 2.6081h.109c.179-.0019.357.0054.535.0217 2.842.2651 5.316 2.742 5.518 5.5184.048.6008-.033 1.2047-.235 1.7722-.203.5676-.524 1.0858-.941 1.5208-.961 1.0105-2.42 1.5931-3.903 1.5614-1.452-.0422-2.842-.5966-3.924-1.5651-1.116-1.0077-1.762-2.3521-1.817-3.7841 0-.029 0-.0579 0-.086v-.0144c-.063-2.2253-.977-4.3417-2.553-5.9138-.64-.6378-1.277-1.2982-1.894-1.9369-.487-.5048-.991-1.0258-1.493-1.5379-1.487-1.461-3.427-2.1386-5.461-1.9079l-.057.0063c-2.543.2922-4.468 1.8193-5.637 3.0524-.362.3862-.724.7816-1.072 1.1642-.815.8911-1.661 1.8094-2.526 2.6887-1.2161 1.2484-2.735 3.2423-3.0317 5.6459-.0045.0299-.0082.0597-.0127.0905-.3827 2.6235-2.7212 4.8037-5.323 4.9485-.0877.0054-.1863.0081-.2922.0081zm19.7016-26.4096c-1.465 0-3.133.7156-4.106 1.5822-.711.6333-1.003 1.5208-1.267 2.4526-.097.3987-.153.8065-.166 1.2167-.01.4494-.072.8961-.187 1.3308-.542 1.8093-1.574 3.567-2.973 5.0932-.863.9399-1.724 1.8572-2.56 2.7257-1.7481 1.7795-3.9808 2.9555-6.2759 3.3111-.0625.009-.1258.0244-.1918.0398-.0811.021-.1632.0376-.2461.0497-3.3427.4361-4.583 2.9067-5.0353 4.9033-.2207.977.0298 1.945.6712 2.59.9201.9263 2.2273.9951 2.9239.9607 2.533-.142 4.8128-2.2616 5.1855-4.829 0-.029.009-.0588.0127-.0905.3057-2.438 1.8409-4.4609 3.0758-5.7274.864-.8748 1.707-1.7948 2.523-2.685.35-.3836.714-.7789 1.073-1.1661 1.184-1.2493 3.137-2.7981 5.722-3.0894l.056-.0063c2.081-.2361 4.061.4523 5.582 1.9495.503.5084 1.007 1.0304 1.494 1.5379.616.6387 1.253 1.2982 1.892 1.9351 1.601 1.5987 2.528 3.75 2.591 6.0114v.0145.0841c.108 2.8045 2.623 5.1448 5.6 5.2108 1.439.0326 2.859-.5346 3.794-1.5162.406-.4172.718-.9169.915-1.4651.197-.5483.274-1.1324.226-1.7129-.195-2.714-2.609-5.1267-5.383-5.3845-.173-.0163-.346-.0236-.519-.0217-2.641.0271-5.181-.9626-6.8-2.6525-.382-.3962-.762-.7937-1.142-1.1923-.41-.4288-.834-.873-1.253-1.3073-1.599-1.6935-2.34-3.9289-2.033-6.1326.016-.1203.028-.2425.035-.3619.075-1.3714-.633-3.0125-2.128-3.4965-.358-.1112-.731-.1658-1.106-.1619z" fill="url(#l)"/><path d="m134.995 65.1369c-.145.0017-.284-.0509-.392-.1474-.527-.4641-.1-1.5606.105-2.0871l.019-.0479c.954-2.4562 3.153-4.6536 5.603-5.5989l.054-.0208c.534-.2072 1.643-.6333 2.1-.1068.411.4767-.201 1.2611-.53 1.6818-.029.0361-.055.0696-.077.0995-.744.977-1.64 1.8717-2.506 2.7365l-.281.2805c-.855.8549-1.739 1.7396-2.704 2.4742l-.09.0724c-.326.2524-.854.664-1.301.664zm-.133-2.2281-.018.0488c-.181.4569-.596 1.5271-.146 1.9233.39.3429 1.142-.2415 1.503-.522l.095-.0742c.956-.7282 1.837-1.6084 2.688-2.4606l.282-.2805c.863-.8612 1.755-1.7523 2.493-2.7221l.078-.1004c.281-.3619.866-1.11.533-1.4954-.389-.4523-1.472-.0317-1.935.1475l-.054.0217c-2.376.9164-4.594 3.1319-5.518 5.5139z" fill="url(#m)"/><path d="m100.992 65.1449c-.452 0-.983-.417-1.305-.6685-.0352-.0272-.0669-.0525-.0959-.0733-.977-.7445-1.8735-1.641-2.7393-2.5068l-.2207-.2207c-.8748-.8739-1.7794-1.7777-2.533-2.7638-.0217-.0289-.0471-.0624-.076-.0986-.3058-.3908-.9418-1.2041-.5301-1.6763.4577-.5265 1.5632-.0905 2.0942.1167l.0588.0235c2.4426.9535 4.642 3.1609 5.603 5.6234l.022.057c.204.521.629 1.6048.102 2.0526-.106.0895-.241.1374-.38.1348zm-6.7745-6.3226c.7454.9788 1.6456 1.8789 2.5167 2.7492l.2208.2208c.863.863 1.7559 1.755 2.7257 2.4932.0281.0226.0606.0479.0968.0751.3615.2822 1.1105.8675 1.5005.5373.448-.3799.034-1.4356-.143-1.8871l-.022-.057c-.946-2.4262-3.1131-4.601-5.5186-5.5401l-.0588-.0235c-.4614-.1809-1.5379-.6052-1.9306-.1574-.332.3818.2542 1.1299.5356 1.49l.0778.0995z" fill="url(#n)"/><path d="m141.82 24.1212c-.502 0-1.104-.2434-1.455-.3845l-.064-.0262c-2.443-.9789-4.638-3.1727-5.587-5.5872l-.017-.0452c-.204-.5193-.633-1.6004-.1-2.0518.484-.4116 1.266.1999 1.69.5283l.096.0733c.966.7355 1.851 1.6212 2.707 2.4779l.28.2795c.866.8639 1.76 1.7577 2.504 2.7339l.075.0977c.306.3908.942 1.205.517 1.6691-.158.1718-.389.2352-.646.2352zm-6.838-8.0831c-.105-.0035-.209.0316-.29.0986-.453.3836-.035 1.4366.142 1.8862l.017.0443c.935 2.3802 3.095 4.5405 5.505 5.5058l.063.0253c.462.1863 1.538.6215 1.939.1863.341-.3727-.244-1.1199-.524-1.4791-.029-.0371-.055-.0696-.077-.0995-.737-.968-1.628-1.8581-2.491-2.7194l-.279-.2741c-.853-.8531-1.735-1.7351-2.693-2.4652l-.097-.0742c-.285-.2243-.811-.635-1.215-.635z" fill="url(#o)"/><path d="m94.1443 24.1098c-.2524 0-.4804-.0615-.6333-.2316-.4252-.4596.2117-1.2729.5175-1.6646.028-.0353.0534-.0678.0742-.0959.7499-.9852 1.6528-1.8862 2.5258-2.7583l.2234-.2243c.8676-.8667 1.7641-1.7632 2.742-2.5086l.0977-.0751c.4204-.3284 1.2044-.94 1.6864-.5428.531.436.108 1.5044-.096 2.0183l-.022.0533c-.955 2.4227-3.147 4.6264-5.585 5.6134l-.0679.0272c-.3582.1429-.9598.389-1.4628.389zm.0136-1.9478.0588.0444c-.0218.0289-.048.0615-.076.0977-.2814.3618-.8658 1.1064-.5256 1.4746.3989.4315 1.4736-.0073 1.9323-.1945l.0688-.0281c2.4027-.9725 4.5628-3.1428 5.5048-5.531l.021-.0534c.176-.4433.588-1.4828.14-1.85-.393-.3221-1.143.2641-1.5044.5428l-.0977.0759c-.9707.7391-1.8636 1.6284-2.7276 2.496l-.2234.2234c-.8694.8685-1.7686 1.7668-2.5122 2.7439z" fill="url(#p)"/><path d="m126.322 54.326c-1.223-.0006-2.399-.4764-3.278-1.3271-.54-.519-.967-1.1444-1.253-1.8368-.286-.6923-.425-1.4364-.409-2.1853.058-3.055 2.633-5.5628 5.739-5.5908h.126c2.582.0172 5.014-.9752 6.676-2.7221.607-.6333 1.259-1.2439 1.888-1.8337l.498-.4669c1.603-1.5541 2.317-3.6122 2.007-5.7952v-.0244c0-.0244-.006-.0489-.01-.0733v-.0298c-.257-2.059-1.365-4.1017-3.292-6.0721-.764-.7708-1.51-1.5831-2.232-2.3684-.22-.2412-.44-.48-.66-.7165-1.774-1.8798-3.934-3.0487-6.082-3.2893l-.104-.0136c-1.314-.192-2.532-.799-3.477-1.7324-.995-.9824-1.564-2.2173-1.607-3.4766-.041-1.2249.437-2.3747 1.277-3.0758.712-.5926 1.596-.7943 2.557-.5835 2.197.4813 4.414 2.6932 5.044 5.0344.025.0905.044.171.06.247.596 2.7827 2.18 4.9629 3.405 6.3027.797.8576 1.599 1.7008 2.381 2.5068 1.774 1.794 4.06 3.0523 6.436 3.5436l.07.0162c.034.0082.066.0163.097.0208 3.137.4587 4.599 1.8673 5.213 5.0236.211 1.0856-.047 2.0527-.724 2.7275-.423.4189-1.382 1.1055-3.062.9952-.029 0-.059-.0046-.091-.0082-2.261-.2135-4.411.4813-6.05 1.9586-.884.8142-1.728 1.6501-2.437 2.3593-1.618 1.6284-2.615 4.0348-2.736 6.604 0 .0398 0 .0787-.007.1185-.099 1.4104-.736 2.7891-1.792 3.8837-1.056 1.0947-2.438 1.7723-3.839 1.8681-.111.0079-.221.0118-.332.0118zm.846-10.7943h-.045c-3.029.0271-5.538 2.4706-5.594 5.4469-.016.7287.119 1.4527.397 2.1263.279.6737.694 1.2822 1.219 1.7872.461.4462 1.011.7903 1.614 1.0101.602.2197 1.245.3102 1.885.2655 1.365-.0905 2.692-.7418 3.737-1.8247 1.017-1.0539 1.654-2.4362 1.75-3.7914 0-.0389.006-.0778.008-.1158.122-2.6063 1.134-5.0489 2.778-6.7026.71-.7093 1.556-1.5452 2.442-2.3639 1.671-1.5053 3.859-2.2137 6.159-1.9956l.091.0072c.696.0479 2.005-.0127 2.948-.949.644-.6396.888-1.5614.687-2.5954-.316-1.6203-.85-2.7348-1.681-3.5065-.786-.7301-1.868-1.176-3.409-1.3995-.039-.0063-.076-.0154-.112-.0244l-.064-.0154c-2.404-.4958-4.716-1.7686-6.513-3.5843-.784-.8069-1.586-1.651-2.384-2.5095-1.237-1.357-2.838-3.5571-3.438-6.3724-.015-.0732-.035-.151-.058-.2388-.617-2.2924-2.785-4.4581-4.934-4.9295-.915-.2008-1.755-.009-2.432.5537-.805.6703-1.267 1.7758-1.224 2.9564.041 1.2213.596 2.4209 1.563 3.3771.923.9105 2.111 1.5032 3.394 1.6917l.101.0117c2.182.2452 4.374 1.4294 6.172 3.3355.221.2413.441.4804.661.7174.723.7843 1.467 1.5958 2.229 2.3657 1.95 1.9902 3.076 4.0646 3.333 6.1562v.0289c0 .0235.007.048.01.0715v.0253c.316 2.23-.413 4.3333-2.051 5.921-.167.1574-.332.313-.499.4686-.633.588-1.278 1.196-1.882 1.8274-1.676 1.7614-4.122 2.7674-6.718 2.7674h-.143z" fill="url(#q)"/><path d="m123.97 69.997c-.667.0035-1.313-.2332-1.821-.6667-.859-.7192-1.356-1.9522-1.305-3.2169.006-.114.016-.2353.035-.3827.292-2.2282-.421-4.4211-2.006-6.1734-.354-.3836-.712-.7762-1.058-1.1552-.429-.4705-.872-.9572-1.312-1.4312-1.658-1.7939-4.175-2.8207-6.736-2.7465-.181.0052-.362.0001-.542-.0154-2.863-.2388-5.346-2.7981-5.538-5.7066-.045-.65.045-1.3024.264-1.916s.563-1.1752 1.01-1.6492c.495-.5202 1.091-.9337 1.752-1.2151.661-.2815 1.372-.4249 2.09-.4215 3.061 0 5.646 2.4643 5.763 5.4949v.1041c.07 2.3496.98 4.5964 2.564 6.3325.266.2913.53.5833.792.8758.832.9236 1.693 1.8789 2.568 2.7935 1.492 1.5108 3.45 2.2128 5.511 1.9749l.057-.0072c1.99-.2126 4.002-1.3118 5.659-3.0949l.803-.8865c.894-.9888 1.82-2.0111 2.764-2.9854 1.776-1.8582 2.805-3.7995 3.047-5.7636 0-.0307.007-.0615.012-.0904.383-2.714 2.707-4.8354 5.297-4.8354h.016c1.266.0045 2.448.5292 3.152 1.4049.586.7292.786 1.6284.576 2.5937-.508 2.3521-2.125 4.8743-5.136 4.8933-.084.0037-.167.017-.248.0398-.059.0157-.12.0281-.181.0371-2.256.2876-4.463 1.4221-6.215 3.1943-.835.8621-1.689 1.7704-2.533 2.6986-1.697 1.8934-2.842 4.1352-3.226 6.3127-.019.1121-.046.2343-.078.3618-.033.1276-.067.2642-.101.3981-.275 1.1127-.59 2.3738-1.397 3.188-.66.6703-1.83 1.186-3.577 1.5759-.237.0549-.479.0837-.722.0859zm-13.943-15.9219c2.51 0 4.954 1.034 6.583 2.7972.441.474.885.9616 1.314 1.4321.345.379.703.7716 1.056 1.1543 1.615 1.7858 2.342 4.0203 2.045 6.2919-.018.1429-.03.2605-.034.37-.053 1.2204.428 2.4073 1.253 3.0975.673.5645 1.509.7554 2.42.5519 1.719-.3836 2.865-.8866 3.505-1.5379.775-.7862 1.086-2.0283 1.357-3.1247.034-.1348.067-.2714.101-.399.035-.1275.058-.2433.077-.3519.387-2.2037 1.545-4.4717 3.257-6.386.85-.929 1.704-1.8382 2.541-2.7022 1.774-1.7957 4.012-2.9455 6.3-3.2377.054-.0073.108-.0199.165-.0335.092-.0261.186-.041.281-.0443 2.924-.0181 4.496-2.4797 4.994-4.7784.2-.9219.01-1.7768-.543-2.4697-.677-.8414-1.809-1.3462-3.039-1.3507-2.522-.0081-4.794 2.0599-5.166 4.7097 0 .0298-.008.0597-.013.0904-.249 1.9984-1.287 3.9651-3.086 5.8468-.943.9752-1.867 1.9966-2.761 2.9854l-.804.8874c-1.682 1.8094-3.724 2.9248-5.752 3.141l-.056.0072c-2.106.2434-4.106-.4731-5.632-2.0182-.878-.9174-1.739-1.8727-2.572-2.7972-.264-.2925-.527-.5844-.791-.8757-1.607-1.7611-2.53-4.0398-2.602-6.4231 0-.0362 0-.0706 0-.104-.114-2.9528-2.633-5.3547-5.616-5.3547-.698-.0033-1.39.136-2.032.4095s-1.222.6753-1.703 1.1809c-.433.4594-.767 1.0037-.979 1.5985-.213.5948-.3 1.2272-.256 1.8573.091 1.357.7 2.6877 1.719 3.7453 1.019 1.0575 2.334 1.7116 3.684 1.8246.174.0147.35.0196.525.0145.084-.0027.172-.0036.26-.0036z" fill="url(#r)"/></svg>