<svg width="235" height="115" fill="none" xmlns="http://www.w3.org/2000/svg"><path d="M118.239 77.669c-18.381 0-33.335-14.953-33.335-33.334C84.904 25.952 99.858 11 118.24 11s33.333 14.953 33.333 33.334c0 18.381-14.954 33.335-33.333 33.335zm0-63.811c-16.806 0-30.478 13.672-30.478 30.476 0 16.805 13.672 30.481 30.478 30.481 16.805 0 30.475-13.672 30.475-30.478 0-16.805-13.671-30.479-30.475-30.479z" fill="url(#paint0_linear_3011_8398)"/><path d="M111.679 38.092h34.322c-2.866-12.69-14.208-22.16-27.763-22.16a28.43 28.43 0 0 0-23.305 12.117h36.355l-2.074 8.78h-5.909l.671-2.92H91.767a28.487 28.487 0 0 0 12.722 35.414l7.19-31.231z" fill="url(#paint1_linear_3011_8398)"/><path d="M116.528 43.965l-6.524 27.679c1.658.5 3.359.846 5.081 1.035l6.295-27.444h5.849l-6.502 27.51c14.556-1.261 25.976-13.473 25.976-28.354v-.426h-30.175z" fill="url(#paint2_linear_3011_8398)"/><path d="M86.077 46.99c.618.233 1.24.452 1.865.672a30.89 30.89 0 0 1-.18-3.324c0-16.804 13.671-30.476 30.477-30.476s30.475 13.672 30.475 30.476c0 .44-.009.876-.028 1.31.964-.335 1.925-.678 2.882-1.029v-.28c0-18.382-14.953-33.335-33.333-33.335S84.9 25.957 84.9 44.338c0 .714.025 1.421.069 2.122.37.178.737.356 1.108.53z" fill="url(#paint3_linear_3011_8398)"/><path d="M104.246 51.647a95.93 95.93 0 0 0 4.231.35l3.202-13.905h34.322c-2.867-12.69-14.209-22.16-27.764-22.16a28.43 28.43 0 0 0-23.305 12.117h36.355l-2.073 8.78h-5.91l.672-2.92h-32.21a28.584 28.584 0 0 0-1.72 14.448 99.658 99.658 0 0 0 14.2 3.29z" fill="url(#paint4_linear_3011_8398)"/><path d="M119.818 52.04l1.56-6.805h5.849l-1.496 6.328c7.107-1.15 14.075-2.955 20.897-5.22.043-.646.073-1.296.073-1.952v-.426h-30.174l-1.935 8.214c1.738-.001 3.48-.047 5.226-.14z" fill="url(#paint5_linear_3011_8398)"/><path d="M65.572 84.563h14.873l-.572 3.55h-5.594l-2.617 16.575h-3.85l2.618-16.576H65l.572-3.55z" fill="#231F20"/><path d="M83.548 89.813c3.147-.015 5.95.85 5.716 4.207-.422 6.657-8.498 5.373-9.516 4.956-.365 2.23.172 2.806 2.125 2.821 1.636.074 4.262-.174 5.969-.461l-.458 2.745c-2.204.662-4.567.979-7.615.798-3.503-.167-4.62-3.106-3.627-8.44.85-4.481 2.044-6.595 7.406-6.626zm1.78 4.735c.24-1.362-.516-1.657-2.057-1.642-2.601.03-2.851 1.719-3.192 3.525 0 .007 4.784.793 5.25-1.883zm6.69-4.46h3.242l.303 1.841c1.178-.976 2.703-1.992 4.519-1.992.631 0 1.236.026 1.598.175l-.587 3.716c-.39-.037-1.27-.075-2.097-.075-1.595 0-2.789.26-3.968 1.625l-1.477 9.309h-3.844l2.31-14.6zm16.494-.275c2.106-.112 5.437.357 6.839 1.704l-1.924 13.139h-2.97l-.589-1.503c-.722.901-2.665 1.691-4.419 1.691-2.846 0-4.969-2.298-3.828-8.319 1.142-6.02 4.305-6.589 6.891-6.712zm-1.653 11.776c1.588 0 2.459-.523 3.346-1.38l1.051-7.041c-.863-.305-2.12-.434-2.929-.26-1.244.256-2.387.64-2.955 4.318-.423 2.766-.237 4.363 1.487 4.363z" fill="#231F20"/><path d="M118.493 84.563h14.213l-.395 2.447h-5.924l-2.794 17.678h-2.53l2.794-17.678h-5.759l.395-2.448z" fill="#3E2680"/><path d="M135.65 89.813c3.378 0 5.742.972 5.379 4.206-.672 6.194-9.356 4.983-10.372 4.566-.52 3.089 0 4.005 1.958 4.029 1.966.135 4.581-.107 6.606-.402l-.286 1.869c-2.283.641-4.582.846-7.075.798-3.515-.046-4.499-2.666-3.515-8 .858-4.483 1.944-7.058 7.305-7.067zm2.82 4.351c.305-1.792-.78-2.032-2.98-2.028-3.895.008-4.116 2.368-4.589 4.68.004 0 6.987.83 7.573-2.652h-.004zm10.299-4.281c1.43 0 4.345.372 6.255.806l-.261 1.732s-3.469-.212-5.909-.212c-1.66 0-2.639.199-3.566 5.269-.709 3.985.107 5.072 1.924 5.072 2.529 0 6.189-.29 6.189-.29l-.283 1.779c-2.283.671-4.009.843-6.494.805-2.791-.026-4.792-2.042-3.838-7.597 1.159-6.766 3.367-7.364 5.983-7.364zm10.177-6.74h2.525l-1.366 8.608c1.705-.94 3.281-1.91 5.506-1.91 3.046 0 4.106 2.284 3.704 4.798l-1.6 10.049h-2.528l1.601-10.066c.268-1.716-.545-2.458-1.851-2.458-2.023 0-3.112.509-5.117 1.485l-1.754 11.039h-2.529l3.409-21.545z" fill="#3E2680"/><defs><linearGradient id="paint0_linear_3011_8398" x1="118.237" y1="10.584" x2="118.237" y2="77.253" gradientUnits="userSpaceOnUse"><stop stop-color="#58595B"/><stop offset="1" stop-color="#231F20"/></linearGradient><linearGradient id="paint1_linear_3011_8398" x1="117.887" y1="10.584" x2="117.887" y2="77.273" gradientUnits="userSpaceOnUse"><stop stop-color="#A2238D"/><stop offset="1" stop-color="#262261"/></linearGradient><linearGradient id="paint2_linear_3011_8398" x1="25177.1" y1="5965.5" x2="25177.1" y2="20256.6" gradientUnits="userSpaceOnUse"><stop stop-color="#A2238D"/><stop offset="1" stop-color="#262261"/></linearGradient><linearGradient id="paint3_linear_3011_8398" x1="118.238" y1="55.409" x2="118.238" y2="6.415" gradientUnits="userSpaceOnUse"><stop stop-color="#6D6E70"/><stop offset="1" stop-color="#231F20"/></linearGradient><linearGradient id="paint4_linear_3011_8398" x1="34115.7" y1="19473.3" x2="34115.7" y2="6316.84" gradientUnits="userSpaceOnUse"><stop stop-color="#A2238D"/><stop offset="1" stop-color="#262261"/></linearGradient><linearGradient id="paint5_linear_3011_8398" x1="22595.2" y1="4475.55" x2="22595.2" y2="1478.97" gradientUnits="userSpaceOnUse"><stop stop-color="#A2238D"/><stop offset="1" stop-color="#262261"/></linearGradient></defs></svg>