<svg xmlns:xlink="http://www.w3.org/1999/xlink" class="icon icon-plus" viewBox="0 0 10 10" fill="none" xmlns="http://www.w3.org/2000/svg" width="10"  height="10" ><path d="M9.75 4.25H5.75V0.25C5.75 0.111875 5.63812 0 5.5 0H4.5C4.36188 0 4.25 0.111875 4.25 0.25V4.25H0.25C0.111875 4.25 0 4.36188 0 4.5V5.5C0 5.63812 0.111875 5.75 0.25 5.75H4.25V9.75C4.25 9.88813 4.36188 10 4.5 10H5.5C5.63812 10 5.75 9.88813 5.75 9.75V5.75H9.75C9.88813 5.75 10 5.63812 10 5.5V4.5C10 4.36188 9.88813 4.25 9.75 4.25Z" fill="currentColor"></path></svg>