<svg xmlns:xlink="http://www.w3.org/1999/xlink" class="icon icon-cart" width="22.5" height="20" viewBox="0 0 24 20" fill="none" xmlns="http://www.w3.org/2000/svg"><path d="M22.5621 2.5H6.05L5.72465 0.764727C5.64148 0.321328 5.25434 0 4.8032 0H1.46875C1.20988 0 1 0.209883 1 0.46875V0.78125C1 1.04012 1.20988 1.25 1.46875 1.25H4.54375L7.27527 15.8182C6.87129 16.2623 6.625 16.8523 6.625 17.5C6.625 18.8807 7.7443 20 9.125 20C10.5057 20 11.625 18.8807 11.625 17.5C11.6255 17.0611 11.5098 16.6298 11.2897 16.25H16.9603C16.7402 16.6298 16.6246 17.0611 16.625 17.5C16.625 18.8807 17.7443 20 19.125 20C20.5057 20 21.625 18.8807 21.625 17.5C21.625 16.7971 21.3346 16.1625 20.8677 15.7083C20.7665 15.3082 20.4047 15 19.9581 15H8.39375L7.925 12.5H20.8696C21.3136 12.5 21.6968 12.1884 21.7874 11.7537L23.48 3.62871C23.6012 3.04652 23.1568 2.5 22.5621 2.5ZM10.375 17.5C10.375 18.1893 9.81426 18.75 9.125 18.75C8.43574 18.75 7.875 18.1893 7.875 17.5C7.875 16.8107 8.43574 16.25 9.125 16.25C9.81426 16.25 10.375 16.8107 10.375 17.5ZM19.125 18.75C18.4357 18.75 17.875 18.1893 17.875 17.5C17.875 16.8107 18.4357 16.25 19.125 16.25C19.8143 16.25 20.375 16.8107 20.375 17.5C20.375 18.1893 19.8143 18.75 19.125 18.75ZM20.6155 11.25H7.69062L6.28437 3.75H22.178L20.6155 11.25Z" fill="#333333"></path></svg>