<svg xmlns:xlink="http://www.w3.org/1999/xlink" class="icon checkfill-box me-2" width="20" height="20" fill="none" xmlns="http://www.w3.org/2000/svg"><path fill-rule="evenodd" clip-rule="evenodd" d="M15.7143 3.14286H4.28571C3.65453 3.14286 3.14286 3.65453 3.14286 4.28571V15.7143C3.14286 16.3455 3.65453 16.8571 4.28571 16.8571H15.7143C16.3455 16.8571 16.8571 16.3455 16.8571 15.7143V4.28571C16.8571 3.65453 16.3455 3.14286 15.7143 3.14286ZM4.28571 2C3.02335 2 2 3.02335 2 4.28571V15.7143C2 16.9767 3.02335 18 4.28571 18H15.7143C16.9767 18 18 16.9767 18 15.7143V4.28571C18 3.02335 16.9767 2 15.7143 2H4.28571Z" fill="black"></path><path fill-rule="evenodd" clip-rule="evenodd" d="M4 2C2.89543 2 2 2.89543 2 4V16C2 17.1046 2.89543 18 4 18H16C17.1046 18 18 17.1046 18 16V4C18 2.89543 17.1046 2 16 2H4ZM9.70095 12.5634L14.021 8.24342C14.2419 8.01485 14.2419 7.65676 14.021 7.4358C13.8 7.21485 13.4343 7.21485 13.2133 7.4358L9.29714 11.352L7.54476 9.59961C7.32381 9.37866 6.9581 9.37866 6.73714 9.59961C6.51619 9.82056 6.51619 10.1863 6.73714 10.4072L8.89333 12.5634C9 12.6701 9.14476 12.731 9.29714 12.731C9.44952 12.731 9.59429 12.6701 9.70095 12.5634Z" fill="black"></path></svg>