<svg xmlns:xlink="http://www.w3.org/1999/xlink" class="icon check-box me-2" width="20" height="20" viewBox="0 0 20 20" fill="none" xmlns="http://www.w3.org/2000/svg"><path fill-rule="evenodd" clip-rule="evenodd" d="M15.7143 3.14286H4.28571C3.65453 3.14286 3.14286 3.65453 3.14286 4.28571V15.7143C3.14286 16.3455 3.65453 16.8571 4.28571 16.8571H15.7143C16.3455 16.8571 16.8571 16.3455 16.8571 15.7143V4.28571C16.8571 3.65453 16.3455 3.14286 15.7143 3.14286ZM4.28571 2C3.02335 2 2 3.02335 2 4.28571V15.7143C2 16.9767 3.02335 18 4.28571 18H15.7143C16.9767 18 18 16.9767 18 15.7143V4.28571C18 3.02335 16.9767 2 15.7143 2H4.28571Z" fill="#A49F9C"></path></svg>