<svg xmlns:xlink="http://www.w3.org/1999/xlink" width="18" height="18" viewBox="0 0 17 18" fill="none" xmlns="http://www.w3.org/2000/svg"><path d="M7.54485 9.76231L7.75948 9.98324C7.93729 10.1663 7.93729 10.4631 7.75948 10.6462L2.0729 16.5H4.40179C4.65326 16.5 4.85714 16.7099 4.85714 16.9688V17.2812C4.85714 17.5401 4.65326 17.75 4.40179 17.75H0.455357C0.203886 17.75 0 17.5401 0 17.2812V13.2188C0 12.9599 0.203886 12.75 0.455357 12.75H0.758929C1.0104 12.75 1.21429 12.9599 1.21429 13.2188V15.6161L6.90086 9.76231C7.07872 9.57922 7.36703 9.57922 7.54485 9.76231ZM16.5446 0.25H12.5982C12.3467 0.25 12.1429 0.459883 12.1429 0.71875V1.03125C12.1429 1.29012 12.3467 1.5 12.5982 1.5H14.9271L9.24052 7.35383C9.06271 7.53688 9.06271 7.83367 9.24052 8.01676L9.45515 8.2377C9.63297 8.42074 9.92128 8.42074 10.0991 8.2377L15.7857 2.38387V4.78125C15.7857 5.04012 15.9896 5.25 16.2411 5.25H16.5446C16.7961 5.25 17 5.04012 17 4.78125V0.71875C17 0.459883 16.7961 0.25 16.5446 0.25Z" fill="currentColor"></path></svg>