<svg width="32" height="32" fill="none" xmlns="http://www.w3.org/2000/svg"><path fill-rule="evenodd" clip-rule="evenodd" d="M18.146 20.812a7.504 7.504 0 0 1-.987-.64l-4.36 4.36c.483.405.992.784 1.501 1.163l.032.024.063.046c1.5 1.085 3.011 1.95 4.524 2.594 1.534.653 2.987.973 4.347.973.92 0 1.773-.173 2.56-.493.006 0 .013-.003.02-.006a.048.048 0 0 1 .02-.007c.814-.333 1.534-.853 2.187-1.573.368-.406.674-.864.907-1.36.217-.454.331-.95.333-1.453l-.002-.003c0-.373-.08-.707-.213-1.04-.146-.333-.386-.613-.733-.853l-4.413-3.133c-.333-.227-.64-.4-.933-.52a2.125 2.125 0 0 0-.813-.173c-.334 0-.64.093-.947.28-.307.16-.627.414-.96.747l-1.013 1a.733.733 0 0 1-.547.227.92.92 0 0 1-.333-.053c-.043-.018-.083-.037-.12-.054l-.12-.053zM2.666 8.719c0-.907.16-1.773.48-2.573.32-.813.827-1.56 1.533-2.227.853-.84 1.787-1.253 2.773-1.253.373 0 .747.08 1.08.24.347.16.653.4.893.747l3.093 4.36c.24.333.413.64.533.933.12.28.187.56.187.813 0 .32-.093.64-.28.947a4.522 4.522 0 0 1-.747.947l-1.013 1.053a.713.713 0 0 0-.213.533c0 .107.013.2.04.307.019.05.037.094.055.135.02.047.038.09.052.132.24.44.653 1.013 1.24 1.707.6.693 1.24 1.4 1.933 2.107.066.067.136.133.207.2.07.067.14.133.206.2a1.338 1.338 0 0 1 .015 1.906l-.002.002-2.465 2.465a1.34 1.34 0 0 1-1.88.013 13.205 13.205 0 0 0-.22-.213c-.073-.07-.146-.14-.22-.214a37.988 37.988 0 0 1-3.72-4.36c-1.093-1.52-1.973-3.04-2.613-4.547-.627-1.52-.947-2.973-.947-4.36zm8.128 1.522L9.77 11.305a2.713 2.713 0 0 0-.785 1.965c.003.28.041.529.1.765l.028.108.039.103c.034.093.069.175.086.214l.004.01.005.012.046.136.083.153c.335.613.847 1.305 1.469 2.04l.007.01.008.008c.61.705 1.268 1.433 1.984 2.165l-1.53 1.53a35.974 35.974 0 0 1-3.469-4.072c-1.018-1.417-1.816-2.803-2.387-4.145-.545-1.325-.792-2.514-.792-3.588 0-.67.118-1.282.337-1.83l.004-.01c.206-.523.54-1.028 1.045-1.506l.016-.014.014-.015c.55-.542 1.002-.678 1.37-.678.093 0 .169.021.214.043l.014.007.015.006a.172.172 0 0 1 .086.068l.006.01 3.104 4.376.005.006c.165.23.254.4.304.522l.006.015.005.011c-.11.177-.241.34-.391.486l-.026.025zm2.502 8.301l.021-.022a.482.482 0 0 1-.007.008l-.014.014zm6.406 7.977c-1.276-.543-2.57-1.27-3.874-2.188l1.634-1.634.134.06.059.025.06.021c.33.118.68.175 1.03.169a2.73 2.73 0 0 0 1.93-.807l1.01-.997.008-.009c.254-.253.41-.356.47-.387l.06-.031.006-.004.012.005c.124.05.302.143.55.312l4.406 3.128.01.007.044.033c.034.1.04.161.04.215v.065c-.01.183-.056.362-.135.527l-.003.007-.003.006a3.518 3.518 0 0 1-.578.867c-.437.482-.876.801-1.336 1.01l-.163.067a4.738 4.738 0 0 1-1.807.346c-1.044 0-2.23-.245-3.564-.813zm3.065-12.487c.193.192.454.3.726.301.573 0 1.04-.468 1.04-1.041 0-1.093-.733-2.6-1.88-3.813-1.227-1.293-2.627-2.013-3.96-2.013-.56 0-1.027.467-1.027 1.027 0 .56.454 1.027 1.027 1.027.746 0 1.64.506 2.453 1.373.827.893 1.32 1.92 1.32 2.413 0 .272.109.533.301.726zm4.813 0c.193.192.454.3.726.301.56 0 1.026-.467 1.026-1.027 0-5.867-4.773-10.64-10.64-10.64-.56 0-1.013.48-1.013 1.04s.454 1.027 1.027 1.027c4.72 0 8.573 3.84 8.573 8.573 0 .272.109.533.301.726z" fill="#000"/></svg>