<svg xmlns="http://www.w3.org/2000/svg" height="512" width="512" viewBox="0 0 512 512"><title>circle phone</title><g fill="#212121" class="nc-icon-wrapper"><path d="M256 16C123.451 16 16 123.451 16 256s107.451 240 240 240 240-107.451 240-240S388.549 16 256 16zm127.604 305.502l-11.625 50.391c-1.633 7.125-7.901 12.109-15.237 12.109-126.125 0-228.744-102.609-228.744-228.752 0-7.328 4.984-13.594 12.109-15.219l50.377-11.625c7.344-1.703 14.883 2.11 17.93 9.063l23.266 54.281a15.642 15.642 0 0 1-4.492 18.219l-26.915 22.049c16.993 34.609 45.141 62.75 79.766 79.75l22.023-26.907c4.344-5.39 11.852-7.25 18.243-4.484l54.244 23.25c6.953 3 10.742 10.578 9.055 17.875z"></path></g></svg>