<svg width="32" height="32" viewBox="0 0 32 32" fill="none" xmlns="http://www.w3.org/2000/svg">
<path fill-rule="evenodd" clip-rule="evenodd" d="M12.667 1.66701C13.2193 1.66701 13.667 2.11472 13.667 2.66701V5.66601H18.333V2.66701C18.333 2.11472 18.7807 1.66701 19.333 1.66701C19.8853 1.66701 20.333 2.11472 20.333 2.66701V5.66601H20.786C22.7383 5.66601 24.333 7.26072 24.333 9.21301V16C24.333 17.6932 23.754 19.2818 22.642 20.4545C21.5223 21.6353 19.9195 22.333 18 22.333H17V29.333C17 29.8853 16.5523 30.333 16 30.333C15.4477 30.333 15 29.8853 15 29.333V22.333H13.999C12.0797 22.333 10.4765 21.6354 9.35802 20.4538C8.24762 19.2808 7.67202 17.6917 7.679 15.9979V9.20949C7.6823 8.27072 8.0567 7.37134 8.72051 6.70752C9.38433 6.0437 10.2837 5.66931 11.2225 5.66601L11.226 5.666L11.667 5.66601V2.66701C11.667 2.11472 12.1147 1.66701 12.667 1.66701ZM12.6219 7.66601H11.2281C10.8178 7.66783 10.4249 7.83161 10.1347 8.12173C9.84462 8.41184 9.68084 8.80477 9.679 9.215V16.0044C9.67351 17.2428 10.0914 18.3193 10.8105 19.0789C11.522 19.8306 12.5853 20.333 13.999 20.333H18C19.4135 20.333 20.4772 19.8307 21.1908 19.0783C21.912 18.3177 22.333 17.2398 22.333 16V9.21301C22.333 8.36529 21.6337 7.66601 20.786 7.66601H19.3781C19.3632 7.66667 19.3481 7.66701 19.333 7.66701C19.3179 7.66701 19.3028 7.66667 19.2879 7.66601H12.7121C12.6972 7.66667 12.6821 7.66701 12.667 7.66701C12.6519 7.66701 12.6368 7.66667 12.6219 7.66601Z" fill="black"/>
</svg>
