<svg width="32" height="32" viewBox="0 0 32 32" fill="none" xmlns="http://www.w3.org/2000/svg">
<path fill-rule="evenodd" clip-rule="evenodd" d="M6.31517 5.17994C5.46082 6.10005 4.99899 7.48629 4.99899 9.333V22.666C4.99899 24.5127 5.46082 25.899 6.31517 26.8191C7.15707 27.7257 8.52311 28.333 10.666 28.333H21.333C23.4759 28.333 24.8419 27.7257 25.6838 26.8191C26.5382 25.899 27 24.5127 27 22.666V9.333C27 7.48629 26.5382 6.10005 25.6838 5.17994C24.8419 4.27325 23.4759 3.666 21.333 3.666H10.666C8.52311 3.666 7.15707 4.27325 6.31517 5.17994ZM4.84956 3.81906C6.17442 2.39225 8.14188 1.666 10.666 1.666H21.333C23.8571 1.666 25.8246 2.39225 27.1494 3.81906C28.4618 5.23245 29 7.17971 29 9.333V22.666C29 24.8193 28.4618 26.7665 27.1494 28.1799C25.8246 29.6068 23.8571 30.333 21.333 30.333H10.666C8.14188 30.333 6.17442 29.6068 4.84956 28.1799C3.53717 26.7665 2.99899 24.8193 2.99899 22.666V9.333C2.99899 7.17971 3.53717 5.23245 4.84956 3.81906ZM10.334 7.668C9.60629 7.668 9.00101 8.27328 9.00101 9.001V12.334C9.00101 13.0617 9.60629 13.667 10.334 13.667H21.667C22.3947 13.667 23 13.0617 23 12.334V9.001C23 8.27328 22.3947 7.668 21.667 7.668H10.334ZM7.00101 9.001C7.00101 7.16872 8.50172 5.668 10.334 5.668H21.667C23.4993 5.668 25 7.16871 25 9.001V12.334C25 14.1663 23.4993 15.667 21.667 15.667H10.334C8.50172 15.667 7.00101 14.1663 7.00101 12.334V9.001ZM14.4401 21.0801C14.8306 20.6896 14.8306 20.0564 14.4401 19.6659C14.0496 19.2754 13.4164 19.2754 13.0259 19.6659L12.2 20.4918L11.4141 19.7059C11.0236 19.3154 10.3904 19.3154 9.99989 19.7059C9.60937 20.0964 9.60937 20.7296 9.99989 21.1201L10.7858 21.906L9.95888 22.7329C9.56835 23.1234 9.56835 23.7566 9.95888 24.1471C10.3494 24.5376 10.9826 24.5376 11.3731 24.1471L12.2 23.3202L13.0669 24.1871C13.4574 24.5776 14.0906 24.5776 14.4811 24.1871C14.8716 23.7966 14.8716 23.1634 14.4811 22.7729L13.6142 21.906L14.4401 21.0801ZM20.6537 20.44C20.6537 19.7036 21.2506 19.1067 21.987 19.1067H22.014C22.7504 19.1067 23.3474 19.7036 23.3474 20.44C23.3474 21.1764 22.7504 21.7734 22.014 21.7734H21.987C21.2506 21.7734 20.6537 21.1764 20.6537 20.44ZM19.32 21.9727C20.0564 21.9727 20.6533 22.5696 20.6533 23.306V23.333C20.6533 24.0694 20.0564 24.6664 19.32 24.6664C18.5836 24.6664 17.9866 24.0694 17.9866 23.333V23.306C17.9866 22.5696 18.5836 21.9727 19.32 21.9727Z" fill="black"/>
</svg>
