<svg width="32" height="32" viewBox="0 0 32 32" fill="none" xmlns="http://www.w3.org/2000/svg">
<path fill-rule="evenodd" clip-rule="evenodd" d="M2.47346 4.91327C3.54904 2.98294 5.62318 1.66701 8.00001 1.66701H20C20.5523 1.66701 21 2.11472 21 2.66701V5.66699H22.4576C23.1035 5.66931 23.7375 5.84124 24.2962 6.16558C24.8548 6.48991 25.3184 6.95529 25.6407 7.51511L25.6421 7.51757L27.9221 11.5046C27.9292 11.5171 27.9361 11.5298 27.9427 11.5425L30.1837 15.4741C30.2784 15.6269 30.333 15.8081 30.333 16.001V18.6219C30.3337 18.6368 30.334 18.6519 30.334 18.667V22.667C30.334 25.4323 28.0993 27.667 25.334 27.667H24.8607C24.6915 28.2634 24.3721 28.8128 23.926 29.259C23.2383 29.9466 22.3055 30.333 21.333 30.333C20.3604 30.333 19.4277 29.9466 18.74 29.259C18.2938 28.8128 17.9745 28.2634 17.8053 27.667H14.1947C14.0255 28.2634 13.7061 28.8128 13.26 29.259C12.5723 29.9466 11.6395 30.333 10.667 30.333C9.69444 30.333 8.76173 29.9466 8.07403 29.259C7.62784 28.8128 7.30851 28.2634 7.13925 27.667H6.66699C3.90171 27.667 1.66699 25.4323 1.66699 22.667C1.66699 22.1147 2.11471 21.667 2.66699 21.667C3.21928 21.667 3.66699 22.1147 3.66699 22.667C3.66699 24.3277 5.00628 25.667 6.66699 25.667H7.13869C7.3078 25.0698 7.62734 24.5197 8.07403 24.073C8.76173 23.3853 9.69444 22.999 10.667 22.999C11.6395 22.999 12.5723 23.3853 13.26 24.073C13.7066 24.5197 14.0262 25.0698 14.1953 25.667H17.8047C17.9738 25.0698 18.2933 24.5197 18.74 24.073C19.4277 23.3853 20.3604 22.999 21.333 22.999C22.3055 22.999 23.2383 23.3853 23.926 24.073C24.2906 24.4377 24.5706 24.8713 24.7531 25.3432C24.7942 25.4488 24.8306 25.5569 24.862 25.667H25.334C26.9947 25.667 28.334 24.3277 28.334 22.667V19.667H25.334H25.333C24.0477 19.667 23 18.6193 23 17.334V13.334C23 12.0496 24.0462 11.0025 25.3302 11.001L23.9073 8.51287L23.9067 8.51183C23.7593 8.25606 23.5473 8.04343 23.2919 7.89518C23.0367 7.747 22.7471 7.66832 22.452 7.66699H21.001V16C21.001 17.9827 19.4124 19.6072 17.4433 19.6654C17.4224 19.666 17.4013 19.6664 17.3803 19.6667C17.3645 19.6669 17.3488 19.667 17.333 19.667H16C15.4477 19.667 15 19.2193 15 18.667C15 18.12 15.4393 17.6755 15.9844 17.6671L16.001 17.667H17.334L17.3576 17.6668C18.2612 17.6535 19 16.9065 19 16V3.66701H8.00001C6.37684 3.66701 4.95699 4.56508 4.22056 5.88674C3.95174 6.36919 3.34272 6.54237 2.86028 6.27356C2.37783 6.00474 2.20465 5.39572 2.47346 4.91327ZM19.6664 26.7022C19.6757 27.1312 19.8502 27.5407 20.1542 27.8447C20.4669 28.1574 20.8909 28.333 21.333 28.333C21.7751 28.333 22.1991 28.1574 22.5117 27.8447C22.8244 27.5321 23 27.1081 23 26.666C23 26.5008 22.9755 26.3381 22.9285 26.1829C22.719 25.5012 22.0806 25 21.334 25C20.4193 25 19.667 25.7523 19.667 26.667C19.667 26.6788 19.6668 26.6905 19.6664 26.7022ZM28.333 17.667V16.266L26.472 13.001H25.334C25.1533 13.001 25.001 13.1533 25.001 13.334V17.334C25.001 17.5147 25.1533 17.667 25.334 17.667H28.333ZM2.66699 9.66699C2.11471 9.66699 1.66699 10.1147 1.66699 10.667C1.66699 11.2193 2.11471 11.667 2.66699 11.667H10.667C11.2193 11.667 11.667 11.2193 11.667 10.667C11.667 10.1147 11.2193 9.66699 10.667 9.66699H2.66699ZM2.66699 13.667C2.11471 13.667 1.66699 14.1147 1.66699 14.667C1.66699 15.2193 2.11471 15.667 2.66699 15.667H7.99999C8.55228 15.667 8.99999 15.2193 8.99999 14.667C8.99999 14.1147 8.55228 13.667 7.99999 13.667H2.66699ZM2.66699 17.667C2.11471 17.667 1.66699 18.1147 1.66699 18.667C1.66699 19.2193 2.11471 19.667 2.66699 19.667H5.33399C5.88628 19.667 6.33399 19.2193 6.33399 18.667C6.33399 18.1147 5.88628 17.667 5.33399 17.667H2.66699Z" fill="black"/>
</svg>
