<svg width="32" height="32" viewBox="0 0 32 32" fill="none" xmlns="http://www.w3.org/2000/svg">
<path d="M16 28.9C15.6 28.9 15.2 28.8 14.8 28.7C11.4 27.5 1.60001 21.9 1.60001 11.6C1.60001 6.90001 5.40001 3.10001 10 3.10001C12.2 3.10001 14.4 4.00001 15.9 5.60001C17.5 4.00001 19.6 3.10001 21.8 3.10001C26.4 3.10001 30.2 6.90001 30.2 11.6C30.2 20.8 22.1 27 17 28.7C16.8 28.8 16.4 28.9 16 28.9ZM10.1 5.10001C6.60001 5.10001 3.70001 8.00001 3.70001 11.6C3.70001 20.7 12.5 25.8 15.5 26.8C15.8 26.9 16.3 26.9 16.5 26.8C19.6 25.8 28.3 20.7 28.3 11.6C28.3 8.00001 25.4 5.10001 21.9 5.10001C19.9 5.10001 18 6.10001 16.8 7.70001C16.6 8.00001 16.3 8.10001 16 8.10001C15.7 8.10001 15.4 7.90001 15.2 7.70001C14 6.10001 12.1 5.10001 10.1 5.10001Z" fill="black"/>
</svg>
