<svg width="32" height="32" viewBox="0 0 32 32" fill="none" xmlns="http://www.w3.org/2000/svg">
<path d="M27 22C27 22.553 26.465 23 25.806 23H16.194C15.877 23 15.574 22.895 15.35 22.707C15.126 22.519 15 22.265 15 22C15 21.735 15.126 21.48 15.35 21.293C15.574 21.105 15.878 21 16.194 21H25.806C26.466 21 27 21.447 27 22ZM27 16C27 16.553 26.509 17 25.905 17H6.094C5.804 17 5.525 16.895 5.32 16.707C5.115 16.519 4.999 16.265 4.999 16C4.999 15.735 5.114 15.48 5.32 15.293C5.525 15.105 5.804 15 6.094 15H25.905C26.51 15 27 15.448 27 16ZM25.863 11C26.165 11 26.454 10.895 26.667 10.707C26.88 10.519 27 10.265 27 10C27 9.735 26.88 9.48 26.667 9.293C26.454 9.106 26.164 9 25.863 9H12.137C11.988 9 11.84 9.026 11.702 9.076C11.564 9.126 11.439 9.2 11.333 9.293C11.227 9.386 11.144 9.496 11.087 9.617C11.0305 9.73676 11.0011 9.86756 11.0011 10C11.0011 10.1324 11.0305 10.2632 11.087 10.383C11.145 10.505 11.228 10.615 11.333 10.707C11.439 10.8 11.564 10.874 11.702 10.924C11.84 10.974 11.988 11 12.137 11H25.863Z" fill="black"/>
</svg>
