<svg width="26" height="32" viewBox="0 0 26 32" fill="none" xmlns="http://www.w3.org/2000/svg">
<path fill-rule="evenodd" clip-rule="evenodd" d="M2.54498 8.72701C2.54498 5.81029 2.9361 4.42429 3.68018 3.68021C4.42426 2.93613 5.81026 2.54501 8.72698 2.54501H17.454C20.3707 2.54501 21.7567 2.93613 22.5008 3.68021C23.2448 4.42429 23.636 5.81029 23.636 8.72701V23.272C23.636 26.1887 23.2448 27.5747 22.5008 28.3188C21.7567 29.0629 20.3707 29.454 17.454 29.454H8.72698C5.81026 29.454 4.42426 29.0629 3.68018 28.3188C2.9361 27.5747 2.54498 26.1887 2.54498 23.272V8.72701ZM8.72698 0.363007C5.8257 0.363007 3.5752 0.699381 2.13727 2.1373C0.69935 3.57523 0.362976 5.82573 0.362976 8.72701V23.272C0.362976 26.1733 0.69935 28.4238 2.13727 29.8617C3.5752 31.2996 5.8257 31.636 8.72698 31.636H17.454C20.3553 31.636 22.6058 31.2996 24.0437 29.8617C25.4816 28.4238 25.818 26.1733 25.818 23.272V8.72701C25.818 5.82573 25.4816 3.57523 24.0437 2.1373C22.6058 0.699381 20.3553 0.363007 17.454 0.363007H8.72698ZM10.182 5.45401C9.57943 5.45401 9.09098 5.94246 9.09098 6.54501C9.09098 7.14755 9.57943 7.63601 10.182 7.63601H16C16.6025 7.63601 17.091 7.14755 17.091 6.54501C17.091 5.94246 16.6025 5.45401 16 5.45401H10.182ZM13.091 20.726C12.2036 20.726 11.3525 21.0785 10.725 21.706C10.0975 22.3335 9.745 23.1846 9.745 24.072C9.745 24.9594 10.0975 25.8105 10.725 26.438C11.3525 27.0655 12.2036 27.418 13.091 27.418C13.9784 27.418 14.8295 27.0655 15.457 26.438C16.0845 25.8105 16.437 24.9594 16.437 24.072C16.437 23.1846 16.0845 22.3335 15.457 21.706C14.8295 21.0785 13.9784 20.726 13.091 20.726ZM13.091 25.236H13.0909C12.7822 25.236 12.4862 25.1133 12.2679 24.8951C12.0496 24.6768 11.927 24.3807 11.927 24.072C11.927 23.7633 12.0496 23.4672 12.2679 23.2489C12.4862 23.0306 12.7823 22.908 13.091 22.908C13.3997 22.908 13.6958 23.0306 13.9141 23.2489C14.1324 23.4672 14.255 23.7633 14.255 24.072C14.255 24.3807 14.1324 24.6768 13.9141 24.8951C13.6958 25.1134 13.3997 25.236 13.091 25.236Z" fill="black"/>
</svg>
