<svg width="32" height="32" viewBox="0 0 32 32" fill="none" xmlns="http://www.w3.org/2000/svg">
<path fill-rule="evenodd" clip-rule="evenodd" d="M3.66699 8.98699C3.66699 6.73276 3.97229 5.72616 4.49572 5.20272C5.01916 4.67929 6.02576 4.37399 8.27999 4.37399H22.32C24.5742 4.37399 25.5808 4.67929 26.1043 5.20272C26.6277 5.72616 26.933 6.73276 26.933 8.98699C26.933 9.53928 27.3807 9.98699 27.933 9.98699C28.4853 9.98699 28.933 9.53928 28.933 8.98699C28.933 6.74823 28.6783 4.94833 27.5185 3.78851C26.3587 2.62869 24.5588 2.37399 22.32 2.37399H8.27999C6.04123 2.37399 4.24133 2.62869 3.08151 3.78851C1.92169 4.94833 1.66699 6.74823 1.66699 8.98699V16.987C1.66699 17.066 1.66731 17.1444 1.66797 17.2223C1.66732 17.2371 1.66699 17.252 1.66699 17.267C1.66699 17.2893 1.66772 17.3114 1.66916 17.3334C1.69599 19.4116 1.98213 21.0861 3.08151 22.1855C4.24133 23.3453 6.04123 23.6 8.27999 23.6H12.333V27.627H8.987C8.43471 27.627 7.987 28.0747 7.987 28.627C7.987 29.1793 8.43471 29.627 8.987 29.627H13.3291L13.333 29.627L13.3432 29.627C13.8912 29.622 14.334 29.1762 14.334 28.627C14.334 28.6119 14.3337 28.597 14.333 28.5821V22.6C14.333 22.5655 14.3312 22.5314 14.3278 22.4977C14.2766 21.9935 13.8508 21.6 13.333 21.6L13.333 21.6H8.27999C6.02576 21.6 5.01916 21.2947 4.49572 20.7713C4.08398 20.3595 3.80721 19.6488 3.70784 18.267H13.334C13.8863 18.267 14.334 17.8193 14.334 17.267C14.334 16.7147 13.8863 16.267 13.334 16.267H3.66699V8.98699ZM18.2026 14.6156C17.9291 14.8891 17.707 15.4791 17.707 17.067V24.68C17.707 26.2679 17.9291 26.8579 18.2026 27.1314C18.4761 27.4049 19.0661 27.627 20.654 27.627H25.387C26.9749 27.627 27.5649 27.4049 27.8384 27.1314C28.1119 26.8579 28.334 26.2679 28.334 24.68V17.067C28.334 15.4791 28.1119 14.8891 27.8384 14.6156C27.5649 14.3421 26.975 14.12 25.387 14.12H20.654C19.0661 14.12 18.4761 14.3421 18.2026 14.6156ZM16.7884 13.2014C17.6984 12.2914 19.082 12.12 20.654 12.12H25.387C26.9591 12.12 28.3426 12.2914 29.2526 13.2014C30.1626 14.1114 30.334 15.4949 30.334 17.067V24.68C30.334 26.2521 30.1626 27.6356 29.2526 28.5456C28.3426 29.4556 26.9591 29.627 25.387 29.627H20.654C19.082 29.627 17.6984 29.4556 16.7884 28.5456C15.8784 27.6356 15.707 26.2521 15.707 24.68V17.067C15.707 15.4949 15.8784 14.1114 16.7884 13.2014ZM22.993 22.9996C22.2566 22.9996 21.6597 23.5966 21.6597 24.333C21.6597 25.0694 22.2566 25.6663 22.993 25.6663H23.005C23.7414 25.6663 24.3384 25.0694 24.3384 24.333C24.3384 23.5966 23.7414 22.9996 23.005 22.9996H22.993Z" fill="black"/>
</svg>
