<svg width="32" height="32" viewBox="0 0 32 32" fill="none" xmlns="http://www.w3.org/2000/svg">
<path fill-rule="evenodd" clip-rule="evenodd" d="M1.666 15.333C1.666 7.78472 7.78472 1.666 15.333 1.666C22.8813 1.666 29 7.78472 29 15.333C29 22.8813 22.8813 29 15.333 29C7.78472 29 1.666 22.8813 1.666 15.333ZM15.333 3.666C8.88929 3.666 3.666 8.88929 3.666 15.333C3.666 21.7767 8.88929 27 15.333 27C21.7767 27 27 21.7767 27 15.333C27 8.88929 21.7767 3.666 15.333 3.666ZM25.9589 25.9589C26.3494 25.5684 26.9826 25.5684 27.3731 25.9589L30.0401 28.6259C30.4306 29.0164 30.4306 29.6496 30.0401 30.0401C29.6496 30.4306 29.0164 30.4306 28.6259 30.0401L25.9589 27.3731C25.5684 26.9826 25.5684 26.3494 25.9589 25.9589Z" fill="black"/>
</svg>
