<svg width="32" height="32" viewBox="0 0 32 32" fill="none" xmlns="http://www.w3.org/2000/svg">
<path d="M21.7 30.3C20.2 30.3 19.1 29.1 19 27.7C19 26.2 20.1 25 21.6 25H21.7C23.2 25 24.3 26.3 24.3 27.7C24.3 28.4 24 29.1 23.5 29.6C23 30.1 22.4 30.3 21.7 30.3ZM21.7 27C21.5 27 21.3 27.1 21.2 27.2C21.1 27.3 21 27.5 21 27.7C21 28.1 21.3 28.3 21.7 28.4C21.9 28.4 22 28.3 22.2 28.2C22.3 28.1 22.4 27.9 22.4 27.7C22.4 27.3 22.1 27 21.7 27ZM11 30.3C9.5 30.3 8.3 29.1 8.3 27.6C8.3 26.9 8.6 26.2 9.1 25.7C10.1 24.7 11.9 24.7 12.9 25.7C13.4 26.2 13.7 26.9 13.7 27.6C13.7 29.1 12.5 30.3 11 30.3ZM11 27C10.8 27 10.7 27.1 10.5 27.2C10.4 27.3 10.3 27.5 10.3 27.7C10.3 28.1 10.6 28.4 11 28.4C11.4 28.4 11.7 28.1 11.7 27.7C11.7 27.5 11.6 27.4 11.5 27.2C11.3 27.1 11.2 27 11 27ZM24.3 23.7H10.1C8.8 23.7 7.5 23.1 6.6 22.2C5.7 21.2 5.3 19.9 5.4 18.6L6.4 5.3C6.4 4.9 6.3 4.5 6 4.2C5.8 3.8 5.4 3.7 5 3.7H2.7C2.1 3.7 1.7 3.3 1.7 2.7C1.7 2.1 2.1 1.7 2.7 1.7H5C6 1.7 6.9 2.1 7.5 2.8C7.9 3.2 8.1 3.7 8.3 4.2H25C26.4 4.2 27.6 4.7 28.5 5.7C29.4 6.7 29.8 7.9 29.7 9.3L29 19.3C28.8 21.7 26.7 23.7 24.3 23.7ZM8.4 6.2L7.4 18.7C7.3 19.5 7.6 20.2 8.1 20.8C8.6 21.4 9.3 21.7 10.1 21.7H24.3C25.7 21.7 26.9 20.5 27.1 19.1L27.6 11.7H12C11.4 11.7 11 11.3 11 10.7C11 10.1 11.4 9.7 12 9.7H27.7V9.1C27.8 8.3 27.5 7.6 27 7C26.5 6.4 25.8 6.1 25 6.1H8.4V6.2Z" fill="black"/>
</svg>
