<svg width="32" height="32" viewBox="0 0 32 32" fill="none" xmlns="http://www.w3.org/2000/svg">
<path fill-rule="evenodd" clip-rule="evenodd" d="M10.5786 3.91161C12.0165 2.47377 13.9666 1.666 16 1.666C17.0068 1.666 18.0038 1.86431 18.934 2.24962C19.8642 2.63492 20.7094 3.19967 21.4214 3.91161C22.1333 4.62356 22.6981 5.46876 23.0834 6.39897C23.4687 7.32917 23.667 8.32616 23.667 9.333C23.667 10.3398 23.4687 11.3368 23.0834 12.267C22.6981 13.1972 22.1333 14.0424 21.4214 14.7544C20.7094 15.4663 19.8642 16.0311 18.934 16.4164C18.0038 16.8017 17.0068 17 16 17C13.9666 17 12.0165 16.1922 10.5786 14.7544C9.14077 13.3165 8.333 11.3664 8.333 9.333C8.333 7.29959 9.14077 5.34945 10.5786 3.91161ZM16 3.666C14.497 3.666 13.0556 4.26306 11.9928 5.32583C10.9301 6.38859 10.333 7.83002 10.333 9.333C10.333 10.836 10.9301 12.2774 11.9928 13.3402C13.0556 14.4029 14.497 15 16 15C16.7442 15 17.4811 14.8534 18.1687 14.5686C18.8562 14.2838 19.4809 13.8664 20.0072 13.3402C20.5334 12.8139 20.9508 12.1892 21.2356 11.5017C21.5204 10.8141 21.667 10.0772 21.667 9.333C21.667 8.5888 21.5204 7.85188 21.2356 7.16433C20.9508 6.47678 20.5334 5.85206 20.0072 5.32583C19.4809 4.7996 18.8562 4.38217 18.1687 4.09737C17.4811 3.81258 16.7442 3.666 16 3.666ZM3.547 29.333C3.547 23.4385 9.32951 19 16 19C22.6705 19 28.453 23.4385 28.453 29.333C28.453 29.8853 28.0053 30.333 27.453 30.333C26.9007 30.333 26.453 29.8853 26.453 29.333C26.453 24.9075 21.9695 21 16 21C10.0305 21 5.547 24.9075 5.547 29.333C5.547 29.8853 5.09928 30.333 4.547 30.333C3.99471 30.333 3.547 29.8853 3.547 29.333Z" fill="black"/>
</svg>
