<svg fill="none" height="24" viewBox="0 0 24 24" width="24" xmlns="http://www.w3.org/2000/svg"><g clip-rule="evenodd" fill="#292d32" fill-rule="evenodd"><path d="m9.4571 2.92795c-.64085.28905-1.24213.99534-1.8787 2.46771-.00945.02186-.01994.04325-.03142.0641-.00091.00252-.00202.00565-.00337.00952l-.01211.03592c-.00717.0215-.01531.04267-.0244.06344l-.0652.14904-.04001.10002-1.16692 2.78703c.21185-.02422.42711-.0367.64501-.0367h2.35652l2.4139-5.60194c-1.0066-.29447-1.68165-.26891-2.1933-.03814zm-.61673-1.36735c1.18433-.53415 2.53983-.33517 4.08763.25693.1905.07291.3432.22033.4227.40825s.079.40013-.0014.58768l-.03.07-2.9005 6.73136c-.1186.27504-.3893.45318-.68882.45318h-2.85c-.57644 0-1.12713.1186-1.62738.3306-.28081.119-.60569.0561-.8218-.1591s-.28041-.5398-.16263-.82111l1.74768-4.17447.03778-.09444c.00296-.0074.00604-.01476.00924-.02207l.05597-.12794c.01706-.05095.04878-.14014.09703-.23205.67037-1.54094 1.46113-2.6821 2.6245-3.20682z"/><path d="m11.9711 2.22253c.1537-.35853.5565-.53942.9265-.41607.1236.04119.2944.1149.3998.16043.0367.01584.0655.02827.0816.03472l.0124.00496 2.2082.92936c1.2618.52336 2.2608 1.11069 2.9 1.89543.113.13593.22.27983.317.45501.1016.1612.1977.34661.2619.55976.0433.10416.0776.20762.1032.30496.3409 1.08775.1015 2.31492-.4356 3.64728-.146.36223-.5455.55173-.9184.43573-.3649-.1135-.7679-.1661-1.1872-.1661h-6.91003c-.25237 0-.48782-.12695-.62654-.33778-.13872-.21082-.1621-.47728-.06223-.70905l2.9-6.73zm1.0859 1.27084-2.1867 5.0746h5.7702c.3083 0 .622.02191.9339.07163.2994-.9147.3285-1.56544.1721-2.05212-.0051-.01572-.0096-.0316-.0136-.04761-.0098-.03923-.0259-.08809-.0478-.1373-.016-.03602-.0291-.07326-.0393-.11135-.0136-.05114-.0426-.11878-.1062-.21768-.0105-.01628-.0203-.03296-.0295-.05-.0384-.07139-.0855-.13906-.1658-.23543l-.006-.00716c-.4006-.49304-1.1197-.96454-2.3151-1.46017l-.0036-.00152z"/><path d="m5.26442 10.3989c-1.47362.6371-2.5027 2.1021-2.5027 3.7995v1.95c0 .1994.01669.4059.0437.613.00206.0158.00362.0316.00467.0475.09699 1.4687.53006 2.4947 1.21321 3.1779.68314.6831 1.70913 1.1162 3.17784 1.2132.01591.001.03178.0026.04758.0047.20706.027.41357.0437.613.0437h7.79998c1.7401 0 2.9458-.414 3.7346-1.1238.7819-.7036 1.2683-1.8012 1.3565-3.4157.0101-.2023.0189-.383.0189-.5605v-1.95c0-1.8677-1.242-3.4439-2.9262-3.9619-.3683-.1084-.7753-.1681-1.1938-.1681h-9.75998c-.57264 0-1.11351.117-1.6273.3305zm-.58116-1.38285c.68494-.28539 1.42267-.44769 2.20846-.44769h9.75998c.5602 0 1.1119.07986 1.6225.23074l.0073.00216v.00003c2.294.70319 3.9902 2.84611 3.9902 5.39711v1.95c0 .2188-.0108.4346-.0205.6294l-.0004.008-.0002.0033c-.1021 1.8748-.6856 3.4018-1.8509 4.4505-1.1588 1.0427-2.7781 1.5088-4.738 1.5088h-7.79998c-.27177 0-.53689-.0219-.78313-.0533-1.70065-.1162-3.10629-.638-4.11595-1.6477-1.00967-1.0096-1.53144-2.4153-1.6477-4.1159-.03135-.2462-.05322-.5114-.05322-.7831v-1.95c0-2.3211 1.40897-4.31492 3.41313-5.17878l.00839-.00362z"/><path d="m7.29109 5.05393c.17513.21462.2177.50829.11073.7638l-1.75 4.18c-.07501.17917-.21659.32227-.39495.39907-1.47584.6362-2.50687 2.1024-2.50687 3.8013 0 .4142-.33579.75-.75.75s-.75-.3358-.75-.75v-2.93c0-3.20418 2.27924-5.87773 5.31502-6.47586.27178-.05354.55094.04707.72607.26169zm-4.44389 5.21717c.44218-.45445.96014-.83477 1.53308-1.1204l.97786-2.33569c-1.28004.71741-2.21725 1.97122-2.51094 3.45609z"/><path d="m17.8617 5.56371c.231-.22804.5824-.28162.8709-.13274 2.104 1.08594 3.536 3.30988 3.536 5.83643v2.93c0 .4142-.3358.75-.75.75s-.75-.3358-.75-.75c0-1.8622-1.2364-3.4449-2.9255-3.9516-.2016-.0605-.3686-.2029-.46-.39254-.0915-.18961-.099-.40892-.0209-.60437.4965-1.24114.5765-2.06906.3969-2.67983-.0048-.01617-.009-.03248-.0126-.04893-.0092-.04129-.0208-.07149-.0287-.08729-.1452-.29032-.0871-.64108.1439-.86913zm2.8079 4.70159c-.1966-.98315-.6763-1.86738-1.3492-2.556-.0462.44201-.1517.902-.306 1.38113.6218.28879 1.182.68903 1.6552 1.17487z"/></g></svg>