<svg width="32" height="32" viewBox="0 0 32 32" fill="none" xmlns="http://www.w3.org/2000/svg">
<path fill-rule="evenodd" clip-rule="evenodd" d="M10.666 1.66701C10.1137 1.66701 9.66599 2.11472 9.66599 2.66701C9.66599 3.21929 10.1137 3.66701 10.666 3.66701H21.333C21.8853 3.66701 22.333 3.21929 22.333 2.66701C22.333 2.11472 21.8853 1.66701 21.333 1.66701H10.666ZM11.333 5.666C9.62428 5.666 8.15878 6.09574 7.12725 7.12727C6.09573 8.15879 5.66599 9.6243 5.66599 11.333V20.666C5.66599 22.3747 6.09573 23.8402 7.12725 24.8717C8.15878 25.9033 9.62428 26.333 11.333 26.333H20.666C22.3747 26.333 23.8402 25.9033 24.8717 24.8717C25.9032 23.8402 26.333 22.3747 26.333 20.666V11.333C26.333 9.6243 25.9032 8.15879 24.8717 7.12727C23.8402 6.09574 22.3747 5.666 20.666 5.666H11.333ZM20.666 24.333H11.333C9.93469 24.333 9.06669 23.9827 8.54147 23.4575C8.01624 22.9323 7.66599 22.0643 7.66599 20.666V11.333C7.66599 9.9347 8.01624 9.06671 8.54147 8.54148C9.06669 8.01626 9.93469 7.666 11.333 7.666H20.666C22.0643 7.666 22.9323 8.01626 23.4575 8.54148C23.9827 9.06671 24.333 9.9347 24.333 11.333V20.666C24.333 22.0643 23.9827 22.9323 23.4575 23.4575C22.9323 23.9827 22.0643 24.333 20.666 24.333ZM9.66599 29.333C9.66599 28.7807 10.1137 28.333 10.666 28.333H21.333C21.8853 28.333 22.333 28.7807 22.333 29.333C22.333 29.8853 21.8853 30.333 21.333 30.333H10.666C10.1137 30.333 9.66599 29.8853 9.66599 29.333ZM16.333 12.667C16.333 12.1147 15.8853 11.667 15.333 11.667C14.7807 11.667 14.333 12.1147 14.333 12.667V16.667C14.333 17.2193 14.7807 17.667 15.333 17.667H19.333C19.8853 17.667 20.333 17.2193 20.333 16.667C20.333 16.1147 19.8853 15.667 19.333 15.667H16.333V12.667Z" fill="black"/>
</svg>
