<svg width="32" height="32" viewBox="0 0 32 32" fill="none" xmlns="http://www.w3.org/2000/svg">
<path fill-rule="evenodd" clip-rule="evenodd" d="M3.66699 7.70701C3.66699 5.48629 5.48628 3.66701 7.70699 3.66701H10.227C11.7523 3.66701 13 4.92388 13 6.44001V22.8C13 23.6347 12.3147 24.32 11.48 24.32C10.6453 24.32 9.95999 23.6347 9.95999 22.8V12.747C9.95999 12.1947 9.51228 11.747 8.95999 11.747H7.70699C5.48628 11.747 3.66699 9.92772 3.66699 7.70701ZM7.70699 1.66701C4.38171 1.66701 1.66699 4.38172 1.66699 7.70701C1.66699 11.0323 4.38171 13.747 7.70699 13.747H7.95999V22.8C7.95999 24.338 8.9542 25.6505 10.333 26.1278V29.333C10.333 29.8853 10.7807 30.333 11.333 30.333C11.8853 30.333 12.333 29.8853 12.333 29.333V26.2153C13.8622 25.8325 15 24.4453 15 22.8V6.44001C15 3.82414 12.8617 1.66701 10.227 1.66701H7.70699ZM7.45299 7.70701C7.45299 7.56629 7.56527 7.45401 7.70599 7.45401C8.25827 7.45401 8.70599 7.00629 8.70599 6.45401C8.70599 5.90173 8.25827 5.45401 7.70599 5.45401C6.4607 5.45401 5.45299 6.46173 5.45299 7.70701C5.45299 8.95229 6.4607 9.96001 7.70599 9.96001C8.25827 9.96001 8.70599 9.51229 8.70599 8.96001C8.70599 8.40773 8.25827 7.96001 7.70599 7.96001C7.56527 7.96001 7.45299 7.84773 7.45299 7.70701ZM17 6.44001C17 3.82414 19.1383 1.66701 21.773 1.66701H24.293C27.6183 1.66701 30.333 4.38172 30.333 7.70701C30.333 11.0323 27.6183 13.747 24.293 13.747H24.04V22.8C24.04 24.338 23.0458 25.6505 21.667 26.1278V29.333C21.667 29.8853 21.2193 30.333 20.667 30.333C20.1147 30.333 19.667 29.8853 19.667 29.333V26.2153C18.1378 25.8325 17 24.4453 17 22.8V6.44001ZM21.773 3.66701C20.2477 3.66701 19 4.92388 19 6.44001V22.8C19 23.6347 19.6853 24.32 20.52 24.32C21.3547 24.32 22.04 23.6347 22.04 22.8V12.747C22.04 12.1947 22.4877 11.747 23.04 11.747H24.293C26.5137 11.747 28.333 9.92772 28.333 7.70701C28.333 5.48629 26.5137 3.66701 24.293 3.66701H21.773ZM24.293 5.45401C23.7407 5.45401 23.293 5.90173 23.293 6.45401C23.293 7.00629 23.7407 7.45401 24.293 7.45401C24.4337 7.45401 24.546 7.5663 24.546 7.70701C24.546 7.84772 24.4337 7.96001 24.293 7.96001C23.7407 7.96001 23.293 8.40773 23.293 8.96001C23.293 9.51229 23.7407 9.96001 24.293 9.96001C25.5383 9.96001 26.546 8.95229 26.546 7.70701C26.546 6.46172 25.5383 5.45401 24.293 5.45401Z" fill="black"/>
</svg>
