<svg width="22" height="22" fill="none" xmlns="http://www.w3.org/2000/svg"><path fill-rule="evenodd" clip-rule="evenodd" d="M.25 21a.75.75 0 0 1 .75-.75h20a.75.75 0 0 1 0 1.5H1A.75.75 0 0 1 .25 21z" fill="#13172B"/><path fill-rule="evenodd" clip-rule="evenodd" d="M2.307 1.681C3.112.75 4.347.25 6 .25h10c1.654 0 2.888.5 3.693 1.431.787.911 1.057 2.116 1.057 3.319v16a.75.75 0 0 1-.75.75H2a.75.75 0 0 1-.75-.75V5c0-1.203.27-2.408 1.057-3.319zm1.136.98C2.98 3.198 2.75 3.993 2.75 5v15.25h16.5V5c0-1.007-.23-1.802-.693-2.339-.445-.515-1.21-.911-2.557-.911H6c-1.346 0-2.112.396-2.557.911z" fill="#13172B"/><path fill-rule="evenodd" clip-rule="evenodd" d="M5.25 15.5a.75.75 0 0 1 .75-.75h3a.75.75 0 0 1 0 1.5H6a.75.75 0 0 1-.75-.75zm7 0a.75.75 0 0 1 .75-.75h3a.75.75 0 0 1 0 1.5h-3a.75.75 0 0 1-.75-.75zm-7-4.5a.75.75 0 0 1 .75-.75h3a.75.75 0 0 1 0 1.5H6a.75.75 0 0 1-.75-.75zm7 0a.75.75 0 0 1 .75-.75h3a.75.75 0 0 1 0 1.5h-3a.75.75 0 0 1-.75-.75zm-7-4.5A.75.75 0 0 1 6 5.75h3a.75.75 0 0 1 0 1.5H6a.75.75 0 0 1-.75-.75zm7 0a.75.75 0 0 1 .75-.75h3a.75.75 0 0 1 0 1.5h-3a.75.75 0 0 1-.75-.75z" fill="#13172B"/></svg>