<svg width="32" height="32" viewBox="0 0 32 32" fill="none" xmlns="http://www.w3.org/2000/svg">
<path d="M23.493 14.333C23.2207 14.3327 22.9596 14.2244 22.7671 14.0319C22.5746 13.8394 22.4663 13.5783 22.466 13.306C22.466 12.813 21.973 11.786 21.146 10.893C20.333 10.026 19.439 9.52 18.693 9.52C18.12 9.52 17.666 9.053 17.666 8.493C17.666 7.933 18.133 7.466 18.693 7.466C20.026 7.466 21.426 8.186 22.653 9.479C23.8 10.692 24.533 12.199 24.533 13.292C24.533 13.865 24.066 14.332 23.493 14.332V14.333ZM28.306 14.333C28.0337 14.3327 27.7726 14.2244 27.5801 14.0319C27.3876 13.8394 27.2793 13.5783 27.279 13.306C27.279 8.573 23.426 4.733 18.706 4.733C18.133 4.733 17.679 4.266 17.679 3.706C17.679 3.146 18.132 2.666 18.692 2.666C24.559 2.666 29.332 7.439 29.332 13.306C29.332 13.866 28.865 14.333 28.305 14.333H28.306ZM14.733 19.933L12.266 22.4C12.017 22.6485 11.6804 22.7891 11.3287 22.7915C10.9769 22.794 10.6384 22.658 10.386 22.413C10.239 22.266 10.093 22.133 9.946 21.986C8.59796 20.6284 7.35442 19.171 6.226 17.626C5.133 16.106 4.253 14.586 3.613 13.079C2.986 11.559 2.666 10.106 2.666 8.719C2.666 7.812 2.826 6.946 3.146 6.146C3.466 5.333 3.973 4.586 4.679 3.919C5.532 3.079 6.466 2.666 7.452 2.666C7.825 2.666 8.199 2.746 8.532 2.906C8.879 3.066 9.185 3.306 9.425 3.653L12.518 8.013C12.758 8.346 12.931 8.653 13.051 8.946C13.171 9.226 13.238 9.506 13.238 9.759C13.238 10.079 13.145 10.399 12.958 10.706C12.7524 11.0536 12.5012 11.3721 12.211 11.653L11.198 12.706C11.1275 12.7752 11.0721 12.8583 11.0354 12.9501C10.9987 13.0419 10.9816 13.1402 10.985 13.239C10.985 13.346 10.998 13.439 11.025 13.546C11.065 13.653 11.105 13.733 11.132 13.813C11.372 14.253 11.785 14.826 12.372 15.52C12.972 16.213 13.612 16.92 14.305 17.627C14.438 17.76 14.585 17.894 14.718 18.027C15.251 18.547 15.265 19.4 14.731 19.934L14.733 19.933ZM29.293 24.44C29.2911 24.943 29.1773 25.4393 28.96 25.893C28.727 26.3889 28.4213 26.8473 28.053 27.253C27.4 27.973 26.68 28.493 25.866 28.826C25.853 28.826 25.839 28.839 25.826 28.839C25.039 29.159 24.186 29.332 23.266 29.332C21.906 29.332 20.453 29.012 18.919 28.359C17.385 27.706 15.852 26.826 14.332 25.719C13.812 25.332 13.292 24.946 12.799 24.532L17.159 20.172C17.532 20.452 17.866 20.665 18.146 20.812C18.213 20.839 18.293 20.879 18.386 20.919C18.4928 20.957 18.6057 20.975 18.719 20.972C18.946 20.972 19.119 20.892 19.266 20.745L20.279 19.745C20.612 19.412 20.932 19.158 21.239 18.998C21.546 18.811 21.852 18.718 22.186 18.718C22.439 18.718 22.706 18.771 22.999 18.891C23.292 19.011 23.599 19.184 23.932 19.411L28.345 22.544C28.692 22.784 28.932 23.064 29.078 23.397C29.211 23.73 29.291 24.064 29.291 24.437L29.293 24.44Z" fill="black"/>
</svg>
