<svg enable-background="new 0 0 24 24" viewBox="0 0 24 24" xmlns="http://www.w3.org/2000/svg"><g fill="#292d32"><path d="m22 10.4-1.5-1.5c-.1-.1-.2-.4-.2-.6v-2.2c0-1.3-1.1-2.4-2.3-2.4h-2.2c-.2 0-.5-.1-.6-.3l-1.6-1.4c-.9-1-2.4-1-3.3 0l-1.5 1.5c-.1.1-.4.2-.6.2h-2.1c-1.3 0-2.4 1.1-2.4 2.4v2.1c0 .2-.1.5-.3.6l-1.5 1.5c-.9.9-.9 2.4 0 3.3l1.5 1.5c.1.1.2.4.2.6v2.2c0 1.3 1.1 2.3 2.4 2.3h2.1c.2 0 .5.1.6.3l1.5 1.5c.4.4 1 .7 1.7.7.6 0 1.2-.2 1.7-.7l1.5-1.5c.1-.1.4-.2.6-.2h2.2c1.3 0 2.3-1.1 2.3-2.3v-2.2c0-.2.1-.5.3-.6l1.5-1.5c.4-.4.7-1 .7-1.7 0-.6-.2-1.2-.7-1.6zm-1 2.2-1.5 1.5c-.4.4-.7 1.1-.7 1.7v2.2c0 .5-.4.8-.8.8h-2.2c-.6 0-1.3.3-1.7.7l-1.5 1.5c-.3.3-.9.3-1.2 0l-1.5-1.5c-.4-.4-1.1-.7-1.7-.7h-2.1c-.5 0-.9-.4-.9-.8v-2.2c0-.6-.3-1.3-.7-1.7l-1.5-1.5c-.3-.3-.3-.9 0-1.2l1.5-1.5c.4-.4.7-1.1.7-1.7v-2.1c0-.5.4-.9.9-.9h2.1c.6 0 1.3-.3 1.7-.7l1.5-1.5c.3-.3.9-.3 1.2 0l1.5 1.5c.4.4 1.1.7 1.7.7h2.2c.5 0 .8.4.8.9v2.1c0 .6.3 1.3.7 1.7l1.5 1.5c.3.3.3.9 0 1.2z"/><path d="m14.5 8.5-6 6c-.3.3-.3.8 0 1.1.1.1.3.2.5.2s.4-.1.5-.2l6-6c.3-.3.3-.8 0-1.1s-.7-.3-1 0z"/><path d="m14.5 13.5c-.6 0-1 .4-1 1s.5 1 1 1 1-.4 1-1-.4-1-1-1z"/><path d="m9.5 10.5c.6 0 1-.4 1-1s-.4-1-1-1c-.6 0-1 .4-1 1s.5 1 1 1z"/></g></svg>