<svg width="32" height="32" viewBox="0 0 32 32" fill="none" xmlns="http://www.w3.org/2000/svg">
<path fill-rule="evenodd" clip-rule="evenodd" d="M16 4C21 4 25.8 6.9 29 12C30.4 14.2 30.4 17.8 29 20C25.7 25.1 21 28 16 28C11 28 6.2 25.1 3 20C1.6 17.8 1.6 14.2 3 12C6.3 6.9 11 4 16 4ZM16 26C20.3 26 24.4 23.4 27.3 18.9C28.3 17.4 28.3 14.6 27.3 13.1C24.4 8.6 20.3 6 16 6C11.7 6 7.6 8.6 4.7 13.1C3.7 14.6 3.7 17.3 4.7 18.9C7.6 23.4 11.7 26 16 26ZM10.2 16C10.2 12.8 12.8 10.2 16 10.2C19.2 10.2 21.8 12.8 21.8 16C21.8 19.2 19.2 21.8 16 21.8C12.8 21.8 10.2 19.2 10.2 16ZM12.2 16C12.2 18.1 13.9 19.8 16 19.8C18.1 19.8 19.8 18.1 19.8 16C19.8 13.9 18.1 12.2 16 12.2C13.9 12.2 12.2 13.9 12.2 16Z" fill="black"/>
</svg>
