<svg width="32" height="32" viewBox="0 0 32 32" fill="none" xmlns="http://www.w3.org/2000/svg">
<path d="M22.7 2.3C22.1 2.3 21.7 2.7 21.7 3.3C21.7 3.9 22.1 4.3 22.7 4.3C27.5 4.3 28.4 5.2 28.4 10V17C27.7 16.6 26.8 16.4 25.7 16.4H22.5C19.3 16.4 17.8 17.9 17.8 21.1V22.2H14.5V21.1C14.5 17.9 13 16.4 9.80001 16.4H6.40001C5.30001 16.4 4.40001 16.6 3.70001 17V10C3.70001 5.2 4.60001 4.3 9.40001 4.3C10 4.3 10.4 3.9 10.4 3.3C10.4 2.7 10 2.3 9.40001 2.3C3.50001 2.3 1.70001 4.1 1.70001 10V21.2V23.3V25.6C1.70001 28.8 3.20001 30.3 6.40001 30.3H9.60001C12.8 30.3 14.3 28.8 14.3 25.6V24.3H17.6V25.6C17.6 28.8 19.1 30.3 22.3 30.3H25.5C28.7 30.3 30.2 28.8 30.2 25.6V23.3V21.2V10C30.3 4.1 28.5 2.3 22.7 2.3ZM12.3 25.6C12.3 27.7 11.7 28.3 9.60001 28.3H6.40001C4.30001 28.3 3.70001 27.7 3.70001 25.6V23.3V21.2C3.70001 19.1 4.30001 18.5 6.40001 18.5H9.60001C11.7 18.5 12.3 19.1 12.3 21.2V25.6ZM28.3 25.6C28.3 27.7 27.7 28.3 25.6 28.3H22.4C20.3 28.3 19.7 27.7 19.7 25.6V21.2C19.7 19.1 20.3 18.5 22.4 18.5H25.6C27.7 18.5 28.3 19.1 28.3 21.2V23.3V25.6Z" fill="black"/>
</svg>
