<svg width="32" height="32" viewBox="0 0 32 32" fill="none" xmlns="http://www.w3.org/2000/svg">
<path fill-rule="evenodd" clip-rule="evenodd" d="M1.70001 16C1.70001 8.1 8.10001 1.7 16 1.7C23.9 1.7 30.3 8.1 30.3 16C30.3 23.9 23.9 30.3 16 30.3C8.10001 30.3 1.70001 23.9 1.70001 16ZM3.70001 16C3.70001 22.8 9.20001 28.3 16 28.3C22.8 28.3 28.3 22.8 28.3 16C28.3 9.2 22.8 3.7 16 3.7C9.20001 3.7 3.70001 9.2 3.70001 16ZM16 10.7C16.9 9.9 18 9.5 19.2 9.5C22 9.5 24.2 11.8 24.2 14.5C24.2 19.7 19.7 23.2 16.8 24.2C16.5 24.3 16.3 24.3 16 24.3H16H16C15.7 24.3 15.4 24.3 15.2 24.2C12.4 23.2 7.80002 19.7 7.80002 14.5C7.80002 11.8 10 9.5 12.8 9.5C14 9.5 15.1 10 16 10.7ZM15.8 22.3H16.1C17.7 21.8 22.2 19.2 22.1 14.5C22.1 12.9 20.8 11.5 19.1 11.5C18.2 11.5 17.3 11.9 16.7 12.7C16.5 12.9 16.2 13.1 15.9 13.1C15.6 13.1 15.3 13 15.1 12.7C14.5 11.9 13.7 11.5 12.7 11.5C11 11.5 9.70002 12.8 9.70002 14.5C9.70002 19.2 14.2 21.8 15.8 22.3Z" fill="black"/>
</svg>
