<svg enable-background="new 0 0 24 24" viewBox="0 0 24 24" xmlns="http://www.w3.org/2000/svg"><g fill="#292d32"><path d="m22 21.2h-.2v-11.2c0-.9-.4-1.6-1.1-2.2l-7-5.4c-1-.8-2.4-.8-3.4 0l-7 5.5c-.7.4-1.1 1.2-1.1 2.1v11.3h-.2c-.4 0-.8.3-.8.8s.3.8.8.8h5 10 5c.4 0 .8-.3.8-.8s-.4-.9-.8-.9zm-18.2-11.2c0-.4.2-.7.5-1l7-5.4c.5-.4 1.1-.3 1.5 0l7 5.4c.3.2.5.6.5 1v11.3h-2.5v-8.8c0-1.2-1-2.2-2.2-2.2h-7c-1.2 0-2.2 1-2.2 2.2v8.8h-2.7zm4 11.2v-8.8c0-.4.3-.8.8-.8h7c.4 0 .8.3.8.8v8.8z"/><path d="m10 15.5c-.4 0-.8.3-.8.8v1.5c0 .4.3.8.8.8s.8-.3.8-.8v-1.5c0-.5-.4-.8-.8-.8z"/><path d="m10.5 8.2h3c.4 0 .8-.3.8-.8s-.3-.8-.8-.8h-3c-.4 0-.8.3-.8.8s.4.8.8.8z"/></g></svg>