<svg width="32" height="32" viewBox="0 0 32 32" fill="none" xmlns="http://www.w3.org/2000/svg">
<path fill-rule="evenodd" clip-rule="evenodd" d="M25 17L29.7 21.7C30.3 22.3 30.5 23.1 30.1 24C29.9 24.8 29.2 25.4 28.4 25.6L26.2 26.1C26.1 26.1 26 26.2 26 26.3L25.5 28.3C25.3 29.1 24.7 29.8 23.8 30C23 30.2 22.1 29.9 21.5 29.2L15.9 22.8L10.3 29.3C9.8 29.8 9.2 30.1 8.5 30.1C8.45858 30.1 8.4 30.0828 8.33137 30.0627C8.23431 30.0343 8.11716 30 8 30C7.2 29.8 6.5 29.2 6.3 28.3L5.8 26.3C5.8 26.2 5.7 26.1 5.6 26.1L3.4 25.6C2.6 25.4 1.9 24.8 1.7 24C1.5 23.2 1.7 22.3 2.3 21.7L7 17C6.2 15.5 5.7 13.8 5.7 12C5.7 6.3 10.3 1.7 16 1.7C21.7 1.7 26.3 6.3 26.3 12C26.3 13.8 25.9 15.5 25 17ZM24.3 12C24.3 7.4 20.6 3.7 16 3.7C11.4 3.7 7.7 7.4 7.6 12C7.6 13.6 8.1 15.2 9 16.6C10.3 18.6 12.4 19.9 14.7 20.2H15.1H15.5H16H16.4H16.8H17.2C19.5 19.9 21.6 18.6 22.9 16.6C23.8 15.3 24.3 13.7 24.3 12ZM8.6 28.1C8.6 28.1 8.8 28.1 8.9 28L14.2 22.2C11.9 21.8 9.8 20.6 8.3 18.8L3.9 23.2C3.8 23.3 3.8 23.5 3.8 23.5C3.8 23.5 3.8 23.7 4 23.7L6.2 24.2C7 24.4 7.7 25 7.9 25.9L8.4 27.9C8.4 28 8.5 28.1 8.6 28.1ZM28.1 23.6C28.2 23.6 28.3 23.5 28.3 23.4C28.4 23.3 28.4 23.2 28.3 23.1L23.9 18.7C22.3 20.4 20.3 21.7 18 22.1L23.2 27.9C23.3 28 23.4 28 23.5 28C23.5 28 23.7 28 23.7 27.8L24.2 25.8C24.4 25 25 24.3 25.9 24.1L28.1 23.6ZM12 14.8L12.3 13.5L11.2 12.3C10.6 11.7 10.4 11 10.6 10.4C10.8 9.8 11.4 9.3 12.2 9.2L13.6 9L14.3 7.5C14.6 6.8 15.2 6.3 15.9 6.3C16.6 6.3 17.2 6.7 17.6 7.5L18.4 9L20 9.3C20.8 9.4 21.4 9.9 21.6 10.5C21.8 11.1 21.6 11.8 21 12.4L19.9 13.5L20.2 14.8C20.5 16.1 19.9 16.7 19.6 16.9C19.5 17 19.2 17.2 18.7 17.2C18.3 17.2 17.9 17.1 17.4 16.8L16.1 16.1L14.8 16.8C13.7 17.5 12.9 17.1 12.6 16.9C12.2 16.7 11.7 16.1 12 14.8ZM15.4 10C15.1 10.5 14.5 10.9 14 11L12.8 11.2L13.7 12.1C14.1 12.5 14.3 13.2 14.2 13.8L14 14.9L15.1 14.2C15.3 14.1 15.7 14 16 14C16.4 14 16.7 14.1 17 14.3L18 14.9L17.8 13.8C17.7 13.3 17.9 12.5 18.3 12.1L19.2 11.2L18 11C17.4 10.9 16.9 10.5 16.6 10L16 8.7L15.4 10Z" fill="black"/>
</svg>
