<svg xmlns="http://www.w3.org/2000/svg" height="512" width="448" viewBox="0 0 448 512"><title>square check</title><g fill="#212121" class="nc-icon-wrapper"><path d="M384 32H64C28.654 32 0 60.652 0 96v320c0 35.346 28.654 64 64 64h320c35.346 0 64-28.654 64-64V96c0-35.348-28.654-64-64-64zm-44.188 179.812l-128 128C206.344 345.281 199.156 348 192 348s-14.344-2.719-19.812-8.188l-64-64c-10.907-10.937-10.907-28.687 0-39.624 10.937-10.938 28.687-10.938 39.624 0L192 280.406l108.188-108.218c10.937-10.938 28.687-10.938 39.624 0 10.907 10.937 10.907 28.687 0 39.624z"></path></g></svg>