<svg width="24" height="24" fill="none" xmlns="http://www.w3.org/2000/svg"><path fill-rule="evenodd" clip-rule="evenodd" d="M5.53 3.53c-.511.512-.78 1.465-.78 3.47v10c0 2.005.269 2.958.78 3.47.512.511 1.465.78 3.47.78h6c2.005 0 2.958-.269 3.47-.78.511-.512.78-1.465.78-3.47V7c0-2.005-.269-2.958-.78-3.47-.512-.511-1.465-.78-3.47-.78H9c-2.005 0-2.958.269-3.47.78zM4.47 2.47C5.458 1.48 7.005 1.25 9 1.25h6c1.995 0 3.542.231 4.53 1.22.989.988 1.22 2.535 1.22 4.53v10c0 1.995-.231 3.542-1.22 4.53-.988.989-2.535 1.22-4.53 1.22H9c-1.995 0-3.542-.231-4.53-1.22-.989-.988-1.22-2.535-1.22-4.53V7c0-1.995.231-3.542 1.22-4.53z" fill="#292D32"/><path fill-rule="evenodd" clip-rule="evenodd" d="M9.25 5.5a.75.75 0 0 1 .75-.75h4a.75.75 0 0 1 0 1.5h-4a.75.75 0 0 1-.75-.75zM12 16.75a.8.8 0 1 0 0 1.6.8.8 0 0 0 0-1.6zm-2.3.8a2.3 2.3 0 1 1 4.6 0 2.3 2.3 0 0 1-4.6 0z" fill="#292D32"/></svg>